  0
SECTION
  2
HEADER
  9
$ACADVER
  1
AC1015
  9
$ACADMAINTVER
 70
    20
  9
$DWGCODEPAGE
  3
ANSI_1257
  9
$INSBASE
 10
0.0
 20
0.0
 30
0.0
  9
$EXTMIN
 10
-24.00735030864257
 20
-0.0041933060866768
 30
-0.0000000000000149
  9
$EXTMAX
 10
95.17061018960442
 20
130.8484356164639
 30
0.0000000000000156
  9
$LIMMIN
 10
0.0
 20
0.0
  9
$LIMMAX
 10
420.0
 20
297.0
  9
$ORTHOMODE
 70
     0
  9
$REGENMODE
 70
     1
  9
$FILLMODE
 70
     1
  9
$QTEXTMODE
 70
     0
  9
$MIRRTEXT
 70
     0
  9
$LTSCALE
 40
1.0
  9
$ATTMODE
 70
     1
  9
$TEXTSIZE
 40
2.5
  9
$TRACEWID
 40
1.0
  9
$TEXTSTYLE
  7
Standard
  9
$CLAYER
  8
0
  9
$CELTYPE
  6
ByLayer
  9
$CECOLOR
 62
   256
  9
$CELTSCALE
 40
1.0
  9
$DISPSILH
 70
     0
  9
$DIMSCALE
 40
1.0
  9
$DIMASZ
 40
2.5
  9
$DIMEXO
 40
0.625
  9
$DIMDLI
 40
3.75
  9
$DIMRND
 40
0.0
  9
$DIMDLE
 40
0.0
  9
$DIMEXE
 40
1.25
  9
$DIMTP
 40
0.0
  9
$DIMTM
 40
0.0
  9
$DIMTXT
 40
2.5
  9
$DIMCEN
 40
2.5
  9
$DIMTSZ
 40
0.0
  9
$DIMTOL
 70
     0
  9
$DIMLIM
 70
     0
  9
$DIMTIH
 70
     0
  9
$DIMTOH
 70
     0
  9
$DIMSE1
 70
     0
  9
$DIMSE2
 70
     0
  9
$DIMTAD
 70
     1
  9
$DIMZIN
 70
     8
  9
$DIMBLK
  1

  9
$DIMASO
 70
     1
  9
$DIMSHO
 70
     1
  9
$DIMPOST
  1

  9
$DIMAPOST
  1

  9
$DIMALT
 70
     0
  9
$DIMALTD
 70
     3
  9
$DIMALTF
 40
0.03937007874016
  9
$DIMLFAC
 40
1.0
  9
$DIMTOFL
 70
     1
  9
$DIMTVP
 40
0.0
  9
$DIMTIX
 70
     0
  9
$DIMSOXD
 70
     0
  9
$DIMSAH
 70
     0
  9
$DIMBLK1
  1

  9
$DIMBLK2
  1

  9
$DIMSTYLE
  2
ISO-25
  9
$DIMCLRD
 70
     0
  9
$DIMCLRE
 70
     0
  9
$DIMCLRT
 70
     0
  9
$DIMTFAC
 40
1.0
  9
$DIMGAP
 40
0.625
  9
$DIMJUST
 70
     0
  9
$DIMSD1
 70
     0
  9
$DIMSD2
 70
     0
  9
$DIMTOLJ
 70
     0
  9
$DIMTZIN
 70
     8
  9
$DIMALTZ
 70
     0
  9
$DIMALTTZ
 70
     0
  9
$DIMUPT
 70
     0
  9
$DIMDEC
 70
     2
  9
$DIMTDEC
 70
     2
  9
$DIMALTU
 70
     2
  9
$DIMALTTD
 70
     3
  9
$DIMTXSTY
  7
Standard
  9
$DIMAUNIT
 70
     0
  9
$DIMADEC
 70
     0
  9
$DIMALTRND
 40
0.0
  9
$DIMAZIN
 70
     0
  9
$DIMDSEP
 70
    44
  9
$DIMATFIT
 70
     3
  9
$DIMFRAC
 70
     0
  9
$DIMLDRBLK
  1

  9
$DIMLUNIT
 70
     2
  9
$DIMLWD
 70
    -2
  9
$DIMLWE
 70
    -2
  9
$DIMTMOVE
 70
     0
  9
$LUNITS
 70
     2
  9
$LUPREC
 70
     4
  9
$SKETCHINC
 40
1.0
  9
$FILLETRAD
 40
0.0
  9
$AUNITS
 70
     0
  9
$AUPREC
 70
     0
  9
$MENU
  1
.
  9
$ELEVATION
 40
0.0
  9
$PELEVATION
 40
0.0
  9
$THICKNESS
 40
0.0
  9
$LIMCHECK
 70
     0
  9
$CHAMFERA
 40
0.0
  9
$CHAMFERB
 40
0.0
  9
$CHAMFERC
 40
0.0
  9
$CHAMFERD
 40
0.0
  9
$SKPOLY
 70
     0
  9
$TDCREATE
 40
2458027.888774630
  9
$TDUCREATE
 40
2458027.763774630
  9
$TDUPDATE
 40
2458763.824492697
  9
$TDUUPDATE
 40
2458763.699492697
  9
$TDINDWG
 40
1.3283033796
  9
$TDUSRTIMER
 40
1.3283032523
  9
$USRTIMER
 70
     1
  9
$ANGBASE
 50
0.0
  9
$ANGDIR
 70
     0
  9
$PDMODE
 70
     0
  9
$PDSIZE
 40
0.0
  9
$PLINEWID
 40
0.0
  9
$SPLFRAME
 70
     0
  9
$SPLINETYPE
 70
     6
  9
$SPLINESEGS
 70
     8
  9
$HANDSEED
  5
5CD
  9
$SURFTAB1
 70
     6
  9
$SURFTAB2
 70
     6
  9
$SURFTYPE
 70
     6
  9
$SURFU
 70
     6
  9
$SURFV
 70
     6
  9
$UCSBASE
  2

  9
$UCSNAME
  2

  9
$UCSORG
 10
0.0
 20
0.0
 30
0.0
  9
$UCSXDIR
 10
1.0
 20
0.0
 30
0.0
  9
$UCSYDIR
 10
0.0
 20
1.0
 30
0.0
  9
$UCSORTHOREF
  2

  9
$UCSORTHOVIEW
 70
     1
  9
$UCSORGTOP
 10
0.0
 20
0.0
 30
0.0
  9
$UCSORGBOTTOM
 10
0.0
 20
0.0
 30
0.0
  9
$UCSORGLEFT
 10
0.0
 20
0.0
 30
0.0
  9
$UCSORGRIGHT
 10
0.0
 20
0.0
 30
0.0
  9
$UCSORGFRONT
 10
0.0
 20
0.0
 30
0.0
  9
$UCSORGBACK
 10
0.0
 20
0.0
 30
0.0
  9
$PUCSBASE
  2

  9
$PUCSNAME
  2

  9
$PUCSORG
 10
0.0
 20
0.0
 30
0.0
  9
$PUCSXDIR
 10
1.0
 20
0.0
 30
0.0
  9
$PUCSYDIR
 10
0.0
 20
1.0
 30
0.0
  9
$PUCSORTHOREF
  2

  9
$PUCSORTHOVIEW
 70
     0
  9
$PUCSORGTOP
 10
0.0
 20
0.0
 30
0.0
  9
$PUCSORGBOTTOM
 10
0.0
 20
0.0
 30
0.0
  9
$PUCSORGLEFT
 10
0.0
 20
0.0
 30
0.0
  9
$PUCSORGRIGHT
 10
0.0
 20
0.0
 30
0.0
  9
$PUCSORGFRONT
 10
0.0
 20
0.0
 30
0.0
  9
$PUCSORGBACK
 10
0.0
 20
0.0
 30
0.0
  9
$USERI1
 70
     0
  9
$USERI2
 70
     0
  9
$USERI3
 70
     0
  9
$USERI4
 70
     0
  9
$USERI5
 70
     0
  9
$USERR1
 40
0.0
  9
$USERR2
 40
0.0
  9
$USERR3
 40
0.0
  9
$USERR4
 40
0.0
  9
$USERR5
 40
0.0
  9
$WORLDVIEW
 70
     1
  9
$SHADEDGE
 70
     3
  9
$SHADEDIF
 70
    70
  9
$TILEMODE
 70
     1
  9
$MAXACTVP
 70
    64
  9
$PINSBASE
 10
0.0
 20
0.0
 30
0.0
  9
$PLIMCHECK
 70
     0
  9
$PEXTMIN
 10
0.0
 20
0.0
 30
0.0
  9
$PEXTMAX
 10
0.0
 20
0.0
 30
0.0
  9
$PLIMMIN
 10
0.0
 20
0.0
  9
$PLIMMAX
 10
12.0
 20
9.0
  9
$UNITMODE
 70
     0
  9
$VISRETAIN
 70
     1
  9
$PLINEGEN
 70
     0
  9
$PSLTSCALE
 70
     1
  9
$TREEDEPTH
 70
  3020
  9
$CMLSTYLE
  2
Standard
  9
$CMLJUST
 70
     0
  9
$CMLSCALE
 40
20.0
  9
$PROXYGRAPHICS
 70
     1
  9
$MEASUREMENT
 70
     1
  9
$CELWEIGHT
370
    -1
  9
$ENDCAPS
280
     0
  9
$JOINSTYLE
280
     0
  9
$LWDISPLAY
290
     0
  9
$INSUNITS
 70
     4
  9
$HYPERLINKBASE
  1

  9
$STYLESHEET
  1

  9
$XEDIT
290
     1
  9
$CEPSNTYPE
380
     0
  9
$PSTYLEMODE
290
     1
  9
$FINGERPRINTGUID
  2
{FBBB08C5-57A8-45FE-8EE7-5CA360F38284}
  9
$VERSIONGUID
  2
{FEA45378-3959-4F1D-A30B-B432669BDFEE}
  9
$EXTNAMES
290
     1
  9
$PSVPSCALE
 40
0.0
  9
$OLESTARTUP
290
     0
  0
ENDSEC
  0
SECTION
  2
CLASSES
  0
CLASS
  1
ACDBDICTIONARYWDFLT
  2
AcDbDictionaryWithDefault
  3
ObjectDBX Classes
 90
        0
280
     0
281
     0
  0
CLASS
  1
ACDBPLACEHOLDER
  2
AcDbPlaceHolder
  3
ObjectDBX Classes
 90
        0
280
     0
281
     0
  0
CLASS
  1
LAYOUT
  2
AcDbLayout
  3
ObjectDBX Classes
 90
        0
280
     0
281
     0
  0
CLASS
  1
DICTIONARYVAR
  2
AcDbDictionaryVar
  3
ObjectDBX Classes
 90
        0
280
     0
281
     0
  0
CLASS
  1
TABLESTYLE
  2
AcDbTableStyle
  3
ObjectDBX Classes
 90
     2047
280
     0
281
     0
  0
CLASS
  1
SORTENTSTABLE
  2
AcDbSortentsTable
  3
ObjectDBX Classes
 90
        0
280
     0
281
     0
  0
CLASS
  1
DIMASSOC
  2
AcDbDimAssoc
  3
"AcDbDimAssoc|Product Desc:     AcDim ARX App For Dimension|Company:          Autodesk, Inc.|WEB Address:      www.autodesk.com"
 90
        0
280
     0
281
     0
  0
ENDSEC
  0
SECTION
  2
TABLES
  0
TABLE
  2
VPORT
  5
8
330
0
100
AcDbSymbolTable
 70
     2
  0
VPORT
  5
5C4
330
8
100
AcDbSymbolTableRecord
100
AcDbViewportTableRecord
  2
*Active
 70
     0
 10
0.0
 20
0.0
 11
1.0
 21
1.0
 12
-12.78615876006105
 22
-134.9603320464869
 13
0.0
 23
0.0
 14
10.0
 24
10.0
 15
10.0
 25
10.0
 16
0.0
 26
0.0
 36
1.0
 17
129.9290660941726
 27
185.1045274033917
 37
-51.63583756427406
 40
204.7593506530697
 41
2.04337631887456
 42
50.0
 43
0.0
 44
0.0
 50
0.0
 51
0.0
 71
     0
 72
  1000
 73
     1
 74
     3
 75
     0
 76
     0
 77
     0
 78
     0
281
     0
 65
     1
110
0.0
120
0.0
130
0.0
111
1.0
121
0.0
131
0.0
112
0.0
122
1.0
132
0.0
 79
     1
146
0.0
  0
ENDTAB
  0
TABLE
  2
LTYPE
  5
5
330
0
100
AcDbSymbolTable
 70
     1
  0
LTYPE
  5
14
330
5
100
AcDbSymbolTableRecord
100
AcDbLinetypeTableRecord
  2
ByBlock
 70
     0
  3

 72
    65
 73
     0
 40
0.0
  0
LTYPE
  5
15
330
5
100
AcDbSymbolTableRecord
100
AcDbLinetypeTableRecord
  2
ByLayer
 70
     0
  3

 72
    65
 73
     0
 40
0.0
  0
LTYPE
  5
16
330
5
100
AcDbSymbolTableRecord
100
AcDbLinetypeTableRecord
  2
Continuous
 70
     0
  3
Solid line
 72
    65
 73
     0
 40
0.0
  0
ENDTAB
  0
TABLE
  2
LAYER
  5
2
330
0
100
AcDbSymbolTable
 70
     2
  0
LAYER
  5
10
330
2
100
AcDbSymbolTableRecord
100
AcDbLayerTableRecord
  2
0
 70
     0
 62
     7
  6
Continuous
370
    -3
390
F
  0
LAYER
  5
575
330
2
100
AcDbSymbolTableRecord
100
AcDbLayerTableRecord
  2
Defpoints
 70
     0
 62
     7
  6
Continuous
290
     0
370
    -3
390
F
  0
ENDTAB
  0
TABLE
  2
STYLE
  5
3
330
0
100
AcDbSymbolTable
 70
     2
  0
STYLE
  5
11
330
3
100
AcDbSymbolTableRecord
100
AcDbTextStyleTableRecord
  2
Standard
 70
     0
 40
0.0
 41
1.0
 50
0.0
 71
     0
 42
2.5
  3
txt
  4

  0
ENDTAB
  0
TABLE
  2
VIEW
  5
6
330
0
100
AcDbSymbolTable
 70
     0
  0
ENDTAB
  0
TABLE
  2
UCS
  5
7
330
0
100
AcDbSymbolTable
 70
     0
  0
ENDTAB
  0
TABLE
  2
APPID
  5
9
330
0
100
AcDbSymbolTable
 70
     3
  0
APPID
  5
12
330
9
100
AcDbSymbolTableRecord
100
AcDbRegAppTableRecord
  2
ACAD
 70
     0
  0
APPID
  5
9E
330
9
100
AcDbSymbolTableRecord
100
AcDbRegAppTableRecord
  2
ACAD_PSEXT
 70
     0
  0
APPID
  5
3E8
330
9
100
AcDbSymbolTableRecord
100
AcDbRegAppTableRecord
  2
ACAD_EXEMPT_FROM_CAD_STANDARDS
 70
     0
  0
ENDTAB
  0
TABLE
  2
DIMSTYLE
  5
A
330
0
100
AcDbSymbolTable
 70
     2
100
AcDbDimStyleTable
 71
     1
340
27
  0
DIMSTYLE
105
27
102
{ACAD_REACTORS
330
574
330
58D
102
}
330
A
100
AcDbSymbolTableRecord
100
AcDbDimStyleTableRecord
  2
ISO-25
 70
     0
 41
2.5
 42
0.625
 43
3.75
 44
1.25
 73
     0
 74
     0
 77
     1
 78
     8
140
2.5
141
2.5
143
0.03937007874016
147
0.625
171
     3
172
     1
271
     2
272
     2
274
     3
278
    44
283
     0
284
     8
340
11
  0
ENDTAB
  0
TABLE
  2
BLOCK_RECORD
  5
1
330
0
100
AcDbSymbolTable
 70
     9
  0
BLOCK_RECORD
  5
1F
102
{ACAD_XDICTIONARY
360
115
102
}
330
1
100
AcDbSymbolTableRecord
100
AcDbBlockTableRecord
  2
*Model_Space
340
22
  0
BLOCK_RECORD
  5
D2
330
1
100
AcDbSymbolTableRecord
100
AcDbBlockTableRecord
  2
*Paper_Space
340
D3
  0
BLOCK_RECORD
  5
D6
330
1
100
AcDbSymbolTableRecord
100
AcDbBlockTableRecord
  2
*Paper_Space0
340
D7
  0
BLOCK_RECORD
  5
141
102
{ACAD_XDICTIONARY
360
143
102
}
330
1
100
AcDbSymbolTableRecord
100
AcDbBlockTableRecord
  2
A$C29C26587
340
0
1001
ACAD
1000
DesignCenter Data
1002
{
1070
     1
1070
     4
1002
}
  0
BLOCK_RECORD
  5
281
102
{ACAD_XDICTIONARY
360
284
102
}
330
1
100
AcDbSymbolTableRecord
100
AcDbBlockTableRecord
  2
A$C50505EB3
340
0
1001
ACAD
1000
DesignCenter Data
1002
{
1070
     1
1070
     4
1002
}
  0
BLOCK_RECORD
  5
397
102
{ACAD_XDICTIONARY
360
39A
102
}
330
1
100
AcDbSymbolTableRecord
100
AcDbBlockTableRecord
  2
A$C0B7D49F3
340
0
1001
ACAD
1000
DesignCenter Data
1002
{
1070
     1
1070
     4
1002
}
  0
BLOCK_RECORD
  5
41A
102
{ACAD_XDICTIONARY
360
423
102
}
330
1
100
AcDbSymbolTableRecord
100
AcDbBlockTableRecord
  2
A$C226867FE
340
0
1001
ACAD
1000
DesignCenter Data
1002
{
1070
     1
1070
     4
1002
}
  0
BLOCK_RECORD
  5
55E
102
{ACAD_XDICTIONARY
360
561
102
}
330
1
100
AcDbSymbolTableRecord
100
AcDbBlockTableRecord
  2
A$C70E6044D
340
0
1001
ACAD
1000
DesignCenter Data
1002
{
1070
     1
1070
     4
1002
}
  0
BLOCK_RECORD
  5
576
330
1
100
AcDbSymbolTableRecord
100
AcDbBlockTableRecord
  2
*D6
340
0
  0
BLOCK_RECORD
  5
58E
330
1
100
AcDbSymbolTableRecord
100
AcDbBlockTableRecord
  2
*D7
340
0
  0
ENDTAB
  0
ENDSEC
  0
SECTION
  2
BLOCKS
  0
BLOCK
  5
20
330
1F
100
AcDbEntity
  8
0
100
AcDbBlockBegin
  2
*Model_Space
 70
     0
 10
0.0
 20
0.0
 30
0.0
  3
*Model_Space
  1

  0
ENDBLK
  5
21
330
1F
100
AcDbEntity
  8
0
100
AcDbBlockEnd
  0
BLOCK
  5
D4
330
D2
100
AcDbEntity
 67
     1
  8
0
100
AcDbBlockBegin
  2
*Paper_Space
 70
     0
 10
0.0
 20
0.0
 30
0.0
  3
*Paper_Space
  1

  0
ENDBLK
  5
D5
330
D2
100
AcDbEntity
 67
     1
  8
0
100
AcDbBlockEnd
  0
BLOCK
  5
D8
330
D6
100
AcDbEntity
 67
     1
  8
0
100
AcDbBlockBegin
  2
*Paper_Space0
 70
     0
 10
0.0
 20
0.0
 30
0.0
  3
*Paper_Space0
  1

  0
ENDBLK
  5
D9
330
D6
100
AcDbEntity
 67
     1
  8
0
100
AcDbBlockEnd
  0
BLOCK
  5
145
330
141
100
AcDbEntity
  8
0
100
AcDbBlockBegin
  2
A$C29C26587
 70
     0
 10
0.0
 20
0.0
 30
0.0
  3
A$C29C26587
  1

  0
LINE
  5
142
330
141
100
AcDbEntity
  8
0
100
AcDbLine
 10
-3.300000000000011
 20
0.0
 30
0.0
 11
0.0
 21
0.0
 31
0.0
  0
ENDBLK
  5
146
330
141
100
AcDbEntity
  8
0
100
AcDbBlockEnd
  0
BLOCK
  5
286
330
281
100
AcDbEntity
  8
0
100
AcDbBlockBegin
  2
A$C50505EB3
 70
     0
 10
0.0
 20
0.0
 30
0.0
  3
A$C50505EB3
  1

  0
CIRCLE
  5
282
330
281
100
AcDbEntity
  8
0
100
AcDbCircle
 10
30.0
 20
33.19801710976133
 30
0.0
 40
0.5
  0
CIRCLE
  5
283
330
281
100
AcDbEntity
  8
0
100
AcDbCircle
 10
30.0
 20
35.73801710976133
 30
0.0
 40
0.5
  0
ENDBLK
  5
287
330
281
100
AcDbEntity
  8
0
100
AcDbBlockEnd
  0
BLOCK
  5
39C
330
397
100
AcDbEntity
  8
0
100
AcDbBlockBegin
  2
A$C0B7D49F3
 70
     0
 10
0.0
 20
0.0
 30
0.0
  3
A$C0B7D49F3
  1

  0
MTEXT
  5
398
330
397
100
AcDbEntity
  8
0
100
AcDbMText
 10
0.0
 20
1.0
 30
0.0
 40
2.0
 41
6.561538340129914
 71
     8
 72
     5
  1
{\f@KaiTi|b0|i0|c0|p49;SERIAL}
 73
     1
 44
1.0
1001
ACAD
1000
ACAD_MTEXT_DEFINED_HEIGHT_BEGIN
1070
    46
1040
0.0
1000
ACAD_MTEXT_DEFINED_HEIGHT_END
1000
MTEXTBEGIN
1070
    73
1070
     1
1070
    44
1040
1.0
1070
    74
1070
     0
1000
MTEXTEND
  0
MTEXT
  5
399
330
397
100
AcDbEntity
  8
0
100
AcDbMText
 10
-19.76999999999999
 20
13.44999999999999
 30
-0.0000000000000067
 40
2.0
 41
52.5
 71
     4
 72
     5
  1
{\f@KaiTi|b0|i0|c0|p49;S2-CTS current source}
 11
-0.0000000000000001
 21
1.0
 31
0.0
 73
     1
 44
1.0
1001
ACAD
1000
ACAD_MTEXT_DEFINED_HEIGHT_BEGIN
1070
    46
1040
1.999999999999993
1000
ACAD_MTEXT_DEFINED_HEIGHT_END
1000
MTEXTBEGIN
1070
    73
1070
     1
1070
    44
1040
1.0
1070
    74
1070
     0
1000
MTEXTEND
  0
ENDBLK
  5
39D
330
397
100
AcDbEntity
  8
0
100
AcDbBlockEnd
  0
BLOCK
  5
425
330
41A
100
AcDbEntity
  8
0
100
AcDbBlockBegin
  2
A$C226867FE
 70
     0
 10
0.0
 20
0.0
 30
0.0
  3
A$C226867FE
  1

  0
LINE
  5
41B
330
41A
100
AcDbEntity
  8
0
100
AcDbLine
 10
-22.66999999999998
 20
0.0
 30
0.000000000000001
 11
-15.83000000000002
 21
0.0
 31
-0.000000000000001
  0
LINE
  5
41C
330
41A
100
AcDbEntity
  8
0
100
AcDbLine
 10
-22.66999999999997
 20
10.30000000000001
 30
0.0000000000000053
 11
-22.66999999999998
 21
0.0
 31
0.0000000000000018
  0
LINE
  5
41D
330
41A
100
AcDbEntity
  8
0
100
AcDbLine
 10
-15.83000000000002
 20
0.0
 30
-0.0000000000000018
 11
-15.83
 21
10.30000000000001
 31
0.0000000000000018
  0
LINE
  5
41E
330
41A
100
AcDbEntity
  8
0
100
AcDbLine
 10
-15.83000000000001
 20
10.30000000000001
 30
0.0000000000000025
 11
-22.66999999999997
 21
10.30000000000001
 31
0.0000000000000046
  0
LINE
  5
41F
330
41A
100
AcDbEntity
  8
0
100
AcDbLine
 10
-10.37999999999999
 20
0.0
 30
0.0000000000000018
 11
10.37999999999999
 21
0.0
 31
-0.0000000000000018
  0
LINE
  5
420
330
41A
100
AcDbEntity
  8
0
100
AcDbLine
 10
-10.37999999999998
 20
9.5
 30
0.0000000000000053
 11
-10.37999999999999
 21
0.0
 31
0.0000000000000018
  0
LINE
  5
421
330
41A
100
AcDbEntity
  8
0
100
AcDbLine
 10
10.37999999999999
 20
0.0
 30
-0.0000000000000018
 11
10.37999999999999
 21
9.5
 31
0.0000000000000018
  0
LINE
  5
422
330
41A
100
AcDbEntity
  8
0
100
AcDbLine
 10
10.37999999999999
 20
9.5
 30
0.0000000000000018
 11
-10.37999999999998
 21
9.5
 31
0.0000000000000053
  0
ENDBLK
  5
426
330
41A
100
AcDbEntity
  8
0
100
AcDbBlockEnd
  0
BLOCK
  5
563
330
55E
100
AcDbEntity
  8
0
100
AcDbBlockBegin
  2
A$C70E6044D
 70
     0
 10
0.0
 20
0.0
 30
0.0
  3
A$C70E6044D
  1

  0
LINE
  5
55F
330
55E
100
AcDbEntity
  8
0
100
AcDbLine
 10
-23.9987871583765
 20
116.0063787265357
 30
0.0
 11
-13.9987871583765
 21
116.0063787265357
 31
0.0
  0
LINE
  5
560
330
55E
100
AcDbEntity
  8
0
100
AcDbLine
 10
-18.9987871583765
 20
111.0063787265357
 30
0.0
 11
-18.9987871583765
 21
121.0063787265357
 31
0.0
  0
ENDBLK
  5
564
330
55E
100
AcDbEntity
  8
0
100
AcDbBlockEnd
  0
BLOCK
  5
580
330
576
100
AcDbEntity
  8
0
100
AcDbBlockBegin
  2
*D6
 70
     1
 10
0.0
 20
0.0
 30
0.0
  3
*D6
  1

  0
LINE
  5
583
330
576
100
AcDbEntity
  8
0
 62
     0
370
    -2
100
AcDbLine
 10
-18.9987871583765
 20
116.6313787265357
 30
0.0
 11
-18.9987871583765
 21
128.9517969557393
 31
0.0
  0
LINE
  5
584
330
576
100
AcDbEntity
  8
0
 62
     0
370
    -2
100
AcDbLine
 10
81.0012128416235
 20
116.6313787265357
 30
0.0
 11
81.0012128416235
 21
128.9517969557393
 31
0.0
  0
LINE
  5
585
330
576
100
AcDbEntity
  8
0
 62
     0
370
    -2
100
AcDbLine
 10
-16.4987871583765
 20
127.7017969557393
 30
0.0
 11
78.5012128416235
 21
127.7017969557393
 31
0.0
  0
SOLID
  5
586
330
576
100
AcDbEntity
  8
0
 62
     0
100
AcDbTrace
 10
-16.4987871583765
 20
128.1184636224059
 30
0.0
 11
-16.4987871583765
 21
127.2851302890726
 31
0.0
 12
-18.9987871583765
 22
127.7017969557393
 32
0.0
 13
-18.9987871583765
 23
127.7017969557393
 33
0.0
  0
SOLID
  5
587
330
576
100
AcDbEntity
  8
0
 62
     0
100
AcDbTrace
 10
78.5012128416235
 20
128.1184636224059
 30
0.0
 11
78.5012128416235
 21
127.2851302890726
 31
0.0
 12
81.0012128416235
 22
127.7017969557393
 32
0.0
 13
81.0012128416235
 23
127.7017969557393
 33
0.0
  0
MTEXT
  5
588
330
576
100
AcDbEntity
  8
0
 62
     0
100
AcDbMText
 10
31.0012128416235
 20
129.5767969557393
 30
0.0
 40
2.5
 41
0.0
 71
     5
 72
     1
  1
100
 73
     1
 44
1.0
1001
ACAD
1000
MTEXTBEGIN
1070
    73
1070
     1
1070
    44
1040
1.0
1070
    74
1070
     0
1000
MTEXTEND
  0
POINT
  5
589
330
576
100
AcDbEntity
  8
Defpoints
 62
     0
100
AcDbPoint
 10
-18.9987871583765
 20
116.0063787265357
 30
0.0
  0
POINT
  5
58A
330
576
100
AcDbEntity
  8
Defpoints
 62
     0
100
AcDbPoint
 10
81.0012128416235
 20
116.0063787265357
 30
0.0
  0
POINT
  5
58B
330
576
100
AcDbEntity
  8
Defpoints
 62
     0
100
AcDbPoint
 10
81.0012128416235
 20
127.7017969557393
 30
0.0
  0
ENDBLK
  5
581
330
576
100
AcDbEntity
  8
0
100
AcDbBlockEnd
  0
BLOCK
  5
598
330
58E
100
AcDbEntity
  8
0
100
AcDbBlockBegin
  2
*D7
 70
     1
 10
0.0
 20
0.0
 30
0.0
  3
*D7
  1

  0
LINE
  5
59B
330
58E
100
AcDbEntity
  8
0
 62
     0
370
    -2
100
AcDbLine
 10
81.6262128416235
 20
116.0063787265357
 30
0.0
 11
95.16995758808453
 21
116.0063787265357
 31
0.0
  0
LINE
  5
59C
330
58E
100
AcDbEntity
  8
0
 62
     0
370
    -2
100
AcDbLine
 10
81.6262128416235
 20
16.00637872653573
 30
0.0
 11
95.16995758808452
 21
16.00637872653572
 31
0.0
  0
LINE
  5
59D
330
58E
100
AcDbEntity
  8
0
 62
     0
370
    -2
100
AcDbLine
 10
93.91995758808453
 20
113.5063787265357
 30
0.0
 11
93.91995758808452
 21
18.50637872653572
 31
0.0
  0
SOLID
  5
59E
330
58E
100
AcDbEntity
  8
0
 62
     0
100
AcDbTrace
 10
93.50329092141787
 20
113.5063787265357
 30
0.0
 11
94.33662425475121
 21
113.5063787265357
 31
0.0
 12
93.91995758808453
 22
116.0063787265357
 32
0.0
 13
93.91995758808453
 23
116.0063787265357
 33
0.0
  0
SOLID
  5
59F
330
58E
100
AcDbEntity
  8
0
 62
     0
100
AcDbTrace
 10
93.50329092141784
 20
18.50637872653572
 30
0.0
 11
94.33662425475118
 21
18.50637872653572
 31
0.0
 12
93.91995758808452
 22
16.00637872653572
 32
0.0
 13
93.91995758808452
 23
16.00637872653572
 33
0.0
  0
MTEXT
  5
5A0
330
58E
100
AcDbEntity
  8
0
 62
     0
100
AcDbMText
 10
92.04495758808452
 20
66.00637872653575
 30
0.0
 40
2.5
 41
0.0
 71
     5
 72
     1
  1
100
 11
0.0000000000000001
 21
1.0
 31
0.0
 73
     1
 44
1.0
1001
ACAD
1000
MTEXTBEGIN
1070
    73
1070
     1
1070
    44
1040
1.0
1070
    74
1070
     0
1000
MTEXTEND
  0
POINT
  5
5A1
330
58E
100
AcDbEntity
  8
Defpoints
 62
     0
100
AcDbPoint
 10
81.0012128416235
 20
116.0063787265357
 30
0.0
  0
POINT
  5
5A2
330
58E
100
AcDbEntity
  8
Defpoints
 62
     0
100
AcDbPoint
 10
81.0012128416235
 20
16.00637872653573
 30
0.0
  0
POINT
  5
5A3
330
58E
100
AcDbEntity
  8
Defpoints
 62
     0
100
AcDbPoint
 10
93.91995758808452
 20
16.00637872653572
 30
0.0
  0
ENDBLK
  5
599
330
58E
100
AcDbEntity
  8
0
100
AcDbBlockEnd
  0
ENDSEC
  0
SECTION
  2
ENTITIES
  0
LINE
  5
F2
102
{ACAD_REACTORS
330
209
330
2A8
102
}
330
1F
100
AcDbEntity
  8
0
100
AcDbLine
 10
0.0
 20
0.0
 30
0.0
 11
60.0
 21
0.0
 31
0.0
  0
LINE
  5
F9
102
{ACAD_REACTORS
330
329
102
}
330
1F
100
AcDbEntity
  8
0
100
AcDbLine
 10
60.0
 20
109.4
 30
-0.0000000000000082
 11
0.0
 21
109.4
 31
-0.0000000000000082
  0
LINE
  5
FA
102
{ACAD_REACTORS
330
209
102
}
330
1F
100
AcDbEntity
  8
0
100
AcDbLine
 10
0.0
 20
0.0
 30
0.0
 11
0.0000000000000016
 21
22.70000000000002
 31
0.0
  0
LINE
  5
FB
102
{ACAD_REACTORS
330
2A8
102
}
330
1F
100
AcDbEntity
  8
0
100
AcDbLine
 10
60.0
 20
0.0
 30
0.0
 11
60.0
 21
22.70000000000002
 31
0.0
  0
LINE
  5
103
330
1F
100
AcDbEntity
  8
0
100
AcDbLine
 10
60.0
 20
109.4
 30
-0.0000000000000082
 11
60.0
 21
86.69999999999999
 31
-0.0000000000000082
  0
LINE
  5
104
330
1F
100
AcDbEntity
  8
0
100
AcDbLine
 10
0.0
 20
109.4
 30
-0.0000000000000082
 11
0.0
 21
86.69999999999999
 31
-0.0000000000000082
  0
LINE
  5
109
330
1F
100
AcDbEntity
  8
0
100
AcDbLine
 10
7.330000000000017
 20
6.250000000000027
 30
0.0000000000000046
 11
14.16999999999998
 21
6.250000000000028
 31
0.0000000000000025
  0
LINE
  5
10A
330
1F
100
AcDbEntity
  8
0
100
AcDbLine
 10
7.330000000000033
 20
16.55000000000004
 30
0.0000000000000089
 11
7.330000000000019
 21
6.250000000000028
 31
0.0000000000000053
  0
LINE
  5
10B
330
1F
100
AcDbEntity
  8
0
100
AcDbLine
 10
14.16999999999998
 20
6.250000000000028
 30
0.0000000000000018
 11
14.16999999999999
 21
16.55000000000004
 31
0.0000000000000053
  0
LINE
  5
10C
330
1F
100
AcDbEntity
  8
0
100
AcDbLine
 10
14.16999999999999
 20
16.55000000000004
 30
0.0000000000000061
 11
7.330000000000032
 21
16.55000000000004
 31
0.0000000000000081
  0
LINE
  5
10D
330
1F
100
AcDbEntity
  8
0
100
AcDbLine
 10
19.62
 20
6.250000000000028
 30
0.0000000000000053
 11
40.37999999999999
 21
6.250000000000028
 31
0.0000000000000018
  0
LINE
  5
10E
330
1F
100
AcDbEntity
  8
0
100
AcDbLine
 10
19.62000000000002
 20
15.75000000000003
 30
0.0000000000000089
 11
19.62
 21
6.250000000000028
 31
0.0000000000000053
  0
LINE
  5
10F
330
1F
100
AcDbEntity
  8
0
100
AcDbLine
 10
40.37999999999999
 20
6.250000000000028
 30
0.0000000000000018
 11
40.37999999999999
 21
15.75000000000003
 31
0.0000000000000053
  0
LINE
  5
110
330
1F
100
AcDbEntity
  8
0
100
AcDbLine
 10
40.37999999999999
 20
15.75000000000003
 30
0.0000000000000053
 11
19.62000000000002
 21
15.75000000000003
 31
0.0000000000000089
  0
LINE
  5
111
330
1F
100
AcDbEntity
  8
0
100
AcDbLine
 10
48.85499999999996
 20
7.840000000000003
 30
-0.0000000000000053
 11
52.15499999999997
 21
7.840000000000003
 31
-0.0000000000000053
  0
LINE
  5
112
330
1F
100
AcDbEntity
  8
0
100
AcDbLine
 10
48.85499999999996
 20
17.76000000000002
 30
-0.0000000000000018
 11
48.85499999999996
 21
7.840000000000003
 31
-0.0000000000000053
  0
LINE
  5
113
330
1F
100
AcDbEntity
  8
0
100
AcDbLine
 10
52.15499999999997
 20
7.840000000000003
 30
-0.0000000000000053
 11
52.15499999999997
 21
17.76000000000002
 31
-0.0000000000000018
  0
LINE
  5
114
330
1F
100
AcDbEntity
  8
0
100
AcDbLine
 10
52.15499999999997
 20
17.76000000000002
 30
-0.0000000000000018
 11
48.85499999999996
 21
17.76000000000002
 31
-0.0000000000000018
  0
LINE
  5
11B
330
1F
100
AcDbEntity
  8
0
100
AcDbLine
 10
34.05000000000001
 20
99.7
 30
-0.0000000000000011
 11
34.04999999999989
 21
100.4965840436417
 31
-0.0000000000000011
  0
ARC
  5
11C
330
1F
100
AcDbEntity
  8
0
100
AcDbCircle
 10
33.15000000000003
 20
99.7
 30
-0.0000000000000011
 40
0.9
100
AcDbArc
 50
270.0
 51
0.0
  0
ARC
  5
11D
330
1F
100
AcDbEntity
  8
0
100
AcDbCircle
 10
33.14999999999991
 20
100.4965840436416
 30
-0.0000000000000011
 40
0.9
100
AcDbArc
 50
0.0000000000032569
 51
44.72321094782399
  0
LINE
  5
11E
330
1F
100
AcDbEntity
  8
0
100
AcDbLine
 10
26.84999999999996
 20
98.80000000000002
 30
-0.0000000000000011
 11
33.15000000000003
 21
98.80000000000002
 31
-0.0000000000000011
  0
LINE
  5
11F
330
1F
100
AcDbEntity
  8
0
100
AcDbLine
 10
33.78946301860122
 20
101.1298983793718
 30
-0.0000000000000011
 11
33.56394855348872
 21
101.3576023053106
 31
-0.0000000000000011
  0
ARC
  5
120
330
1F
100
AcDbEntity
  8
0
100
AcDbCircle
 10
26.84999999999996
 20
99.7
 30
-0.0000000000000011
 40
0.9
100
AcDbArc
 50
179.9999999999967
 51
270.0
  0
ARC
  5
121
330
1F
100
AcDbEntity
  8
0
100
AcDbCircle
 10
33.63500000000004
 20
101.4279705648362
 30
-0.0000000000000011
 40
0.1
100
AcDbArc
 50
180.0
 51
224.7232109477835
  0
LINE
  5
122
330
1F
100
AcDbEntity
  8
0
100
AcDbLine
 10
25.95000000000009
 20
100.4965840436416
 30
-0.0000000000000011
 11
25.94999999999998
 21
99.70000000000005
 31
-0.0000000000000011
  0
LINE
  5
123
330
1F
100
AcDbEntity
  8
0
100
AcDbLine
 10
33.53500000000002
 20
101.4279705648362
 30
-0.0000000000000011
 11
33.53500000000002
 21
102.2
 31
-0.0000000000000011
  0
ARC
  5
124
330
1F
100
AcDbEntity
  8
0
100
AcDbCircle
 10
26.85000000000008
 20
100.4965840436416
 30
-0.0000000000000011
 40
0.9
100
AcDbArc
 50
135.2767890521771
 51
180.0
  0
ARC
  5
125
330
1F
100
AcDbEntity
  8
0
100
AcDbCircle
 10
32.63500000000004
 20
102.2
 30
-0.0000000000000011
 40
0.9
100
AcDbArc
 50
359.9999999999984
 51
90.0
  0
LINE
  5
126
330
1F
100
AcDbEntity
  8
0
100
AcDbLine
 10
26.43605144651121
 20
101.3576023053106
 30
-0.0000000000000011
 11
26.21053698139877
 21
101.1298983793718
 31
-0.0000000000000011
  0
LINE
  5
127
330
1F
100
AcDbEntity
  8
0
100
AcDbLine
 10
32.63500000000004
 20
103.1
 30
-0.0000000000000011
 11
27.36499999999995
 21
103.1
 31
-0.0000000000000011
  0
ARC
  5
128
330
1F
100
AcDbEntity
  8
0
100
AcDbCircle
 10
26.36499999999994
 20
101.4279705648362
 30
-0.0000000000000011
 40
0.1
100
AcDbArc
 50
315.2767890521935
 51
0.0
  0
ARC
  5
129
330
1F
100
AcDbEntity
  8
0
100
AcDbCircle
 10
27.36499999999995
 20
102.2
 30
-0.0000000000000011
 40
0.9
100
AcDbArc
 50
90.0
 51
179.9999999999984
  0
LINE
  5
12A
330
1F
100
AcDbEntity
  8
0
100
AcDbLine
 10
26.46499999999997
 20
102.2
 30
-0.0000000000000011
 11
26.46500000000003
 21
101.4279705648362
 31
-0.0000000000000011
  0
LINE
  5
12B
102
{ACAD_REACTORS
330
209
330
2A8
102
}
330
1F
100
AcDbEntity
  8
0
100
AcDbLine
 10
0.0000000000000016
 20
22.70000000000002
 30
0.0
 11
60.0
 21
22.70000000000002
 31
0.0
  0
LINE
  5
12C
330
1F
100
AcDbEntity
  8
0
100
AcDbLine
 10
60.0
 20
86.69999999999999
 30
-0.0000000000000082
 11
0.0
 21
86.69999999999999
 31
-0.0000000000000082
  0
LWPOLYLINE
  5
13A
102
{ACAD_REACTORS
330
310
330
315
330
3E2
330
40A
102
}
330
1F
100
AcDbEntity
  8
0
100
AcDbPolyline
 90
        4
 70
     1
 43
0.0
 10
2.999999999999998
 20
27.70000000000001
 10
57.0
 20
27.70000000000001
 10
57.0
 20
81.70000000000001
 10
2.999999999999998
 20
81.70000000000001
  0
MTEXT
  5
17A
330
1F
100
AcDbEntity
  8
0
100
AcDbMText
 10
47.85499999999996
 20
16.61000000000001
 30
-0.0000000000000022
 40
2.0
 41
6.561538340129914
 71
     6
 72
     5
  1
{\f@KaiTi|b0|i0|c0|p49;Tx}
 73
     1
 44
1.0
1001
ACAD
1000
ACAD_MTEXT_DEFINED_HEIGHT_BEGIN
1070
    46
1040
0.0
1000
ACAD_MTEXT_DEFINED_HEIGHT_END
1000
MTEXTBEGIN
1070
    73
1070
     1
1070
    44
1040
1.0
1070
    74
1070
     0
1000
MTEXTEND
  0
MTEXT
  5
183
330
1F
100
AcDbEntity
  8
0
100
AcDbMText
 10
47.85499999999996
 20
14.07000000000001
 30
-0.0000000000000031
 40
2.0
 41
6.561538340129914
 71
     6
 72
     5
  1
{\f@KaiTi|b0|i0|c0|p49;Rx}
 73
     1
 44
1.0
1001
ACAD
1000
ACAD_MTEXT_DEFINED_HEIGHT_BEGIN
1070
    46
1040
0.0
1000
ACAD_MTEXT_DEFINED_HEIGHT_END
1000
MTEXTBEGIN
1070
    73
1070
     1
1070
    44
1040
1.0
1070
    74
1070
     0
1000
MTEXTEND
  0
MTEXT
  5
18B
330
1F
100
AcDbEntity
  8
0
100
AcDbMText
 10
47.85499999999996
 20
11.53000000000001
 30
-0.000000000000004
 40
2.0
 41
6.561538340129914
 71
     6
 72
     5
  1
{\f@KaiTi|b0|i0|c0|p49;RTS}
 73
     1
 44
1.0
1001
ACAD
1000
ACAD_MTEXT_DEFINED_HEIGHT_BEGIN
1070
    46
1040
0.0
1000
ACAD_MTEXT_DEFINED_HEIGHT_END
1000
MTEXTBEGIN
1070
    73
1070
     1
1070
    44
1040
1.0
1070
    74
1070
     0
1000
MTEXTEND
  0
MTEXT
  5
193
330
1F
100
AcDbEntity
  8
0
100
AcDbMText
 10
47.85499999999996
 20
8.990000000000012
 30
-0.0000000000000049
 40
2.0
 41
6.561538340129914
 71
     6
 72
     5
  1
{\f@KaiTi|b0|i0|c0|p49;CTS}
 73
     1
 44
1.0
1001
ACAD
1000
ACAD_MTEXT_DEFINED_HEIGHT_BEGIN
1070
    46
1040
0.0
1000
ACAD_MTEXT_DEFINED_HEIGHT_END
1000
MTEXTBEGIN
1070
    73
1070
     1
1070
    44
1040
1.0
1070
    74
1070
     0
1000
MTEXTEND
  0
MTEXT
  5
1A3
330
1F
100
AcDbEntity
  8
0
100
AcDbMText
 10
9.480000000000014
 20
17.55000000000004
 30
0.0000000000000085
 40
2.0
 41
6.561538340129914
 71
     4
 72
     5
  1
{\f@KaiTi|b0|i0|c0|p49;S1}
 11
-0.0000000000000001
 21
1.0
 31
0.0
 73
     1
 44
1.0
1001
ACAD
1000
ACAD_MTEXT_DEFINED_HEIGHT_BEGIN
1070
    46
1040
0.0
1000
ACAD_MTEXT_DEFINED_HEIGHT_END
1000
MTEXTBEGIN
1070
    73
1070
     1
1070
    44
1040
1.0
1070
    74
1070
     0
1000
MTEXTEND
  0
MTEXT
  5
1A4
330
1F
100
AcDbEntity
  8
0
100
AcDbMText
 10
12.02000000000001
 20
17.55000000000004
 30
0.0000000000000076
 40
2.0
 41
6.561538340129914
 71
     4
 72
     5
  1
{\f@KaiTi|b0|i0|c0|p49;S2}
 11
-0.0000000000000001
 21
1.0
 31
0.0
 73
     1
 44
1.0
1001
ACAD
1000
ACAD_MTEXT_DEFINED_HEIGHT_BEGIN
1070
    46
1040
0.0
1000
ACAD_MTEXT_DEFINED_HEIGHT_END
1000
MTEXTBEGIN
1070
    73
1070
     1
1070
    44
1040
1.0
1070
    74
1070
     0
1000
MTEXTEND
  0
MTEXT
  5
1B6
330
1F
100
AcDbEntity
  8
0
100
AcDbMText
 10
30.00000000000001
 20
16.75000000000003
 30
0.0000000000000071
 40
2.0
 41
6.561538340129914
 71
     8
 72
     5
  1
{\f@KaiTi|b0|i0|c0|p49;SERIAL}
 73
     1
 44
1.0
1001
ACAD
1000
ACAD_MTEXT_DEFINED_HEIGHT_BEGIN
1070
    46
1040
0.0
1000
ACAD_MTEXT_DEFINED_HEIGHT_END
1000
MTEXTBEGIN
1070
    73
1070
     1
1070
    44
1040
1.0
1070
    74
1070
     0
1000
MTEXTEND
  0
MTEXT
  5
1C0
330
1F
100
AcDbEntity
  8
0
100
AcDbMText
 10
30.0
 20
97.80000000000002
 30
-0.0000000000000011
 40
2.0
 41
6.561538340129914
 71
     8
 72
     5
  1
{\f@KaiTi|b0|i0|c0|p49;USB}
 11
-1.0
 21
0.0000000000000001
 31
0.0
 73
     1
 44
1.0
1001
ACAD
1000
ACAD_MTEXT_DEFINED_HEIGHT_BEGIN
1070
    46
1040
0.0
1000
ACAD_MTEXT_DEFINED_HEIGHT_END
1000
MTEXTBEGIN
1070
    73
1070
     1
1070
    44
1040
1.0
1070
    74
1070
     0
1000
MTEXTEND
  0
LINE
  5
1C4
330
1F
100
AcDbEntity
  8
0
100
AcDbLine
 10
17.79
 20
3.0
 30
0.0
 11
17.79
 21
22.70000000000001
 31
0.0
  0
LINE
  5
1CD
330
1F
100
AcDbEntity
  8
0
100
AcDbLine
 10
16.79
 20
3.0
 30
0.0
 11
16.79
 21
22.70000000000001
 31
0.0
  0
LINE
  5
1F1
102
{ACAD_REACTORS
330
209
102
}
330
1F
100
AcDbEntity
  8
0
100
AcDbLine
 10
4.71
 20
0.0
 30
0.0
 11
4.71
 21
22.70000000000002
 31
0.0
  0
LINE
  5
1FA
102
{ACAD_REACTORS
330
2A8
102
}
330
1F
100
AcDbEntity
  8
0
100
AcDbLine
 10
55.28999999999999
 20
0.0
 30
0.0
 11
55.28999999999999
 21
22.70000000000002
 31
0.0
  0
HATCH
  5
209
330
1F
100
AcDbEntity
  8
0
100
AcDbHatch
 10
0.0
 20
0.0
 30
0.0
210
0.0
220
0.0
230
1.0
  2
SOLID
 70
     1
 71
     1
 91
        1
 92
        7
 72
     0
 73
     1
 93
        4
 10
4.710000000000001
 20
22.70000000000002
 10
0.0000000000000016
 20
22.70000000000002
 10
0.0
 20
0.0
 10
4.71
 20
0.0
 97
        4
330
12B
330
FA
330
F2
330
1F1
 75
     0
 76
     1
 47
0.0685844129034566
 98
        1
 10
1.77746973184827
 20
12.16592766823299
1001
ACAD
1010
0.0
1020
0.0
1030
0.0
  0
LINE
  5
217
102
{ACAD_REACTORS
330
329
102
}
330
1F
100
AcDbEntity
  8
0
100
AcDbLine
 10
23.12000000000004
 20
109.4
 30
-0.0000000000000082
 11
23.12000000000004
 21
86.69999999999999
 31
-0.0000000000000082
  0
LINE
  5
218
102
{ACAD_REACTORS
330
329
102
}
330
1F
100
AcDbEntity
  8
0
100
AcDbLine
 10
36.87999999999997
 20
109.4
 30
-0.0000000000000082
 11
36.87999999999997
 21
86.69999999999999
 31
-0.0000000000000082
  0
HATCH
  5
221
330
1F
100
AcDbEntity
  8
0
100
AcDbHatch
 10
0.0
 20
0.0
 30
0.0
210
0.0
220
0.0
230
1.0
  2
SOLID
 70
     1
 71
     0
 91
        2
 92
        7
 72
     0
 73
     1
 93
        4
 10
36.87999999999999
 20
86.69999999999999
 10
60.00000000000002
 20
86.69999999999999
 10
60.0
 20
109.4
 10
36.87999999999996
 20
109.4
 97
        0
 92
        7
 72
     0
 73
     1
 93
        4
 10
0.0
 20
86.69999999999999
 10
23.12000000000001
 20
86.69999999999999
 10
23.12000000000001
 20
109.4
 10
0.0
 20
109.4
 97
        0
 75
     0
 76
     1
 47
0.1560300065032338
 98
        2
 10
40.72302375288193
 20
98.4040064761425
 10
16.20497480571787
 20
97.15576633661491
1001
ACAD
1010
0.0
1020
0.0
1030
0.0
  0
LINE
  5
25B
102
{ACAD_REACTORS
330
315
330
365
330
3E2
330
40A
102
}
330
1F
100
AcDbEntity
  8
0
100
AcDbLine
 10
4.71
 20
27.70000000000001
 30
0.0
 11
4.71
 21
81.70000000000001
 31
0.0
  0
LINE
  5
25C
102
{ACAD_REACTORS
330
310
330
3E2
330
40A
102
}
330
1F
100
AcDbEntity
  8
0
100
AcDbLine
 10
55.28999999999999
 20
27.70000000000001
 30
0.0
 11
55.28999999999999
 21
81.70000000000001
 31
0.0
  0
CIRCLE
  5
25D
102
{ACAD_REACTORS
330
2EE
102
}
330
1F
100
AcDbEntity
  8
0
100
AcDbCircle
 10
30.0
 20
39.01981545731803
 30
0.0
 40
0.5
  0
CIRCLE
  5
266
102
{ACAD_REACTORS
330
2EE
102
}
330
1F
100
AcDbEntity
  8
0
100
AcDbCircle
 10
30.0
 20
41.55981545731802
 30
0.0
 40
0.5
  0
CIRCLE
  5
270
102
{ACAD_REACTORS
330
2EE
102
}
330
1F
100
AcDbEntity
  8
0
100
AcDbCircle
 10
32.54
 20
39.01981545731803
 30
0.0
 40
0.5
  0
CIRCLE
  5
271
102
{ACAD_REACTORS
330
2EE
102
}
330
1F
100
AcDbEntity
  8
0
100
AcDbCircle
 10
32.54
 20
41.55981545731802
 30
0.0
 40
0.5
  0
CIRCLE
  5
27A
102
{ACAD_REACTORS
330
2EE
102
}
330
1F
100
AcDbEntity
  8
0
100
AcDbCircle
 10
35.08
 20
39.01981545731803
 30
0.0
 40
0.5
  0
CIRCLE
  5
27B
102
{ACAD_REACTORS
330
2EE
102
}
330
1F
100
AcDbEntity
  8
0
100
AcDbCircle
 10
35.08
 20
41.55981545731802
 30
0.0
 40
0.5
  0
CIRCLE
  5
27C
102
{ACAD_REACTORS
330
2EE
102
}
330
1F
100
AcDbEntity
  8
0
100
AcDbCircle
 10
27.46
 20
39.01981545731803
 30
0.0
 40
0.5
  0
CIRCLE
  5
27D
102
{ACAD_REACTORS
330
2EE
102
}
330
1F
100
AcDbEntity
  8
0
100
AcDbCircle
 10
27.46
 20
41.55981545731802
 30
0.0
 40
0.5
  0
CIRCLE
  5
27E
102
{ACAD_REACTORS
330
2EE
102
}
330
1F
100
AcDbEntity
  8
0
100
AcDbCircle
 10
24.92
 20
39.01981545731803
 30
0.0
 40
0.5
  0
CIRCLE
  5
27F
102
{ACAD_REACTORS
330
2EE
102
}
330
1F
100
AcDbEntity
  8
0
100
AcDbCircle
 10
24.92
 20
41.55981545731802
 30
0.0
 40
0.5
  0
MTEXT
  5
290
330
1F
100
AcDbEntity
  8
0
100
AcDbMText
 10
39.38
 20
16.45000000000003
 30
0.0000000000000053
 40
1.5
 41
6.561538340129914
 71
     9
 72
     5
  1
{\f@KaiTi|b0|i0|c0|p49;1}
 73
     1
 44
1.0
1001
ACAD
1000
ACAD_MTEXT_DEFINED_HEIGHT_BEGIN
1070
    46
1040
0.0
1000
ACAD_MTEXT_DEFINED_HEIGHT_END
1000
MTEXTBEGIN
1070
    73
1070
     1
1070
    44
1040
1.0
1070
    74
1070
     0
1000
MTEXTEND
  0
MTEXT
  5
291
330
1F
100
AcDbEntity
  8
0
100
AcDbMText
 10
39.38
 20
5.550000000000025
 30
0.0000000000000053
 40
1.5
 41
6.561538340129914
 71
     3
 72
     5
  1
{\f@KaiTi|b0|i0|c0|p49;2}
 73
     1
 44
1.0
1001
ACAD
1000
ACAD_MTEXT_DEFINED_HEIGHT_BEGIN
1070
    46
1040
0.0
1000
ACAD_MTEXT_DEFINED_HEIGHT_END
1000
MTEXTBEGIN
1070
    73
1070
     1
1070
    44
1040
1.0
1070
    74
1070
     0
1000
MTEXTEND
  0
MTEXT
  5
292
330
1F
100
AcDbEntity
  8
0
100
AcDbMText
 10
20.61999999999999
 20
16.45000000000003
 30
0.0000000000000053
 40
1.5
 41
6.561538340129914
 71
     7
 72
     5
  1
{\f@KaiTi|b0|i0|c0|p49;9}
 73
     1
 44
1.0
1001
ACAD
1000
ACAD_MTEXT_DEFINED_HEIGHT_BEGIN
1070
    46
1040
0.0
1000
ACAD_MTEXT_DEFINED_HEIGHT_END
1000
MTEXTBEGIN
1070
    73
1070
     1
1070
    44
1040
1.0
1070
    74
1070
     0
1000
MTEXTEND
  0
MTEXT
  5
293
330
1F
100
AcDbEntity
  8
0
100
AcDbMText
 10
20.61999999999999
 20
5.550000000000025
 30
0.0000000000000053
 40
1.5
 41
6.561538340129914
 71
     1
 72
     5
  1
{\f@KaiTi|b0|i0|c0|p49;10}
 73
     1
 44
1.0
1001
ACAD
1000
ACAD_MTEXT_DEFINED_HEIGHT_BEGIN
1070
    46
1040
0.0
1000
ACAD_MTEXT_DEFINED_HEIGHT_END
1000
MTEXTBEGIN
1070
    73
1070
     1
1070
    44
1040
1.0
1070
    74
1070
     0
1000
MTEXTEND
  0
MTEXT
  5
2A2
330
1F
100
AcDbEntity
  8
0
100
AcDbMText
 10
9.480000000000014
 20
29.20000000000002
 30
-0.0000000000000005
 40
2.0
 41
52.5
 71
     4
 72
     5
  1
{\f@KaiTi|b0|i0|c0|p49;S1-RTS forced on}
 11
-0.0000000000000001
 21
1.0
 31
0.0
 73
     1
 44
1.0
1001
ACAD
1000
ACAD_MTEXT_DEFINED_HEIGHT_BEGIN
1070
    46
1040
2.0
1000
ACAD_MTEXT_DEFINED_HEIGHT_END
1000
MTEXTBEGIN
1070
    73
1070
     1
1070
    44
1040
1.0
1070
    74
1070
     0
1000
MTEXTEND
  0
MTEXT
  5
2A3
330
1F
100
AcDbEntity
  8
0
100
AcDbMText
 10
12.02000000000001
 20
29.20000000000002
 30
-0.0000000000000014
 40
2.0
 41
52.5
 71
     4
 72
     5
  1
{\f@KaiTi|b0|i0|c0|p49;S2-CTS forced on}
 11
-0.0000000000000001
 21
1.0
 31
0.0
 73
     1
 44
1.0
1001
ACAD
1000
ACAD_MTEXT_DEFINED_HEIGHT_BEGIN
1070
    46
1040
2.000000000000006
1000
ACAD_MTEXT_DEFINED_HEIGHT_END
1000
MTEXTBEGIN
1070
    73
1070
     1
1070
    44
1040
1.0
1070
    74
1070
     0
1000
MTEXTEND
  0
HATCH
  5
2A8
330
1F
100
AcDbEntity
  8
0
100
AcDbHatch
 10
0.0
 20
0.0
 30
0.0000000000000089
210
0.0
220
0.0
230
1.0
  2
SOLID
 70
     1
 71
     1
 91
        1
 92
        7
 72
     0
 73
     1
 93
        4
 10
60.0
 20
22.70000000000002
 10
55.28999999999999
 20
22.70000000000002
 10
55.28999999999999
 20
-0.0000000000000018
 10
60.0
 20
0.0
 97
        4
330
12B
330
1FA
330
F2
330
FB
 75
     0
 76
     1
 47
0.0785718848250912
 98
        1
 10
57.77812699576037
 20
11.1076244512655
1001
ACAD
1010
0.0
1020
0.0
1030
0.0
  0
MTEXT
  5
2B2
330
1F
100
AcDbEntity
  8
0
100
AcDbMText
 10
35.08
 20
36.01981545731803
 30
0.0
 40
1.999999999999999
 41
6.561538340129912
 71
     6
 72
     5
  1
{\f@KaiTi|b0|i0|c0|p49;Tx-}
 11
-0.0000000000000001
 21
1.0
 31
0.0
 73
     1
 44
1.0
1001
ACAD
1000
ACAD_MTEXT_DEFINED_HEIGHT_BEGIN
1070
    46
1040
0.0
1000
ACAD_MTEXT_DEFINED_HEIGHT_END
1000
MTEXTBEGIN
1070
    73
1070
     1
1070
    44
1040
1.0
1070
    74
1070
     0
1000
MTEXTEND
  0
MTEXT
  5
2BB
330
1F
100
AcDbEntity
  8
0
100
AcDbMText
 10
30.0
 20
36.01981545731803
 30
0.0
 40
1.999999999999999
 41
6.561538340129912
 71
     6
 72
     5
  1
{\f@KaiTi|b0|i0|c0|p49;CTS-}
 11
-0.0000000000000001
 21
1.0
 31
0.0
 73
     1
 44
1.0
1001
ACAD
1000
ACAD_MTEXT_DEFINED_HEIGHT_BEGIN
1070
    46
1040
0.0
1000
ACAD_MTEXT_DEFINED_HEIGHT_END
1000
MTEXTBEGIN
1070
    73
1070
     1
1070
    44
1040
1.0
1070
    74
1070
     0
1000
MTEXTEND
  0
MTEXT
  5
2C3
330
1F
100
AcDbEntity
  8
0
100
AcDbMText
 10
32.54
 20
36.01981545731803
 30
0.0
 40
1.999999999999999
 41
6.561538340129912
 71
     6
 72
     5
  1
{\f@KaiTi|b0|i0|c0|p49;RTS-}
 11
-0.0000000000000001
 21
1.0
 31
0.0
 73
     1
 44
1.0
1001
ACAD
1000
ACAD_MTEXT_DEFINED_HEIGHT_BEGIN
1070
    46
1040
0.0
1000
ACAD_MTEXT_DEFINED_HEIGHT_END
1000
MTEXTBEGIN
1070
    73
1070
     1
1070
    44
1040
1.0
1070
    74
1070
     0
1000
MTEXTEND
  0
MTEXT
  5
2CB
330
1F
100
AcDbEntity
  8
0
100
AcDbMText
 10
27.46
 20
36.01981545731803
 30
0.0
 40
1.999999999999999
 41
6.561538340129912
 71
     6
 72
     5
  1
{\f@KaiTi|b0|i0|c0|p49;Rx-}
 11
-0.0000000000000001
 21
1.0
 31
0.0
 73
     1
 44
1.0
1001
ACAD
1000
ACAD_MTEXT_DEFINED_HEIGHT_BEGIN
1070
    46
1040
0.0
1000
ACAD_MTEXT_DEFINED_HEIGHT_END
1000
MTEXTBEGIN
1070
    73
1070
     1
1070
    44
1040
1.0
1070
    74
1070
     0
1000
MTEXTEND
  0
MTEXT
  5
2D3
330
1F
100
AcDbEntity
  8
0
100
AcDbMText
 10
24.92
 20
36.01981545731803
 30
0.0
 40
1.999999999999999
 41
6.561538340129912
 71
     6
 72
     5
  1
{\f@KaiTi|b0|i0|c0|p49;GND}
 11
-0.0000000000000001
 21
1.0
 31
0.0
 73
     1
 44
1.0
1001
ACAD
1000
ACAD_MTEXT_DEFINED_HEIGHT_BEGIN
1070
    46
1040
0.0
1000
ACAD_MTEXT_DEFINED_HEIGHT_END
1000
MTEXTBEGIN
1070
    73
1070
     1
1070
    44
1040
1.0
1070
    74
1070
     0
1000
MTEXTEND
  0
MTEXT
  5
2D4
330
1F
100
AcDbEntity
  8
0
100
AcDbMText
 10
35.08
 20
44.55981545731803
 30
0.0
 40
1.999999999999999
 41
6.561538340129912
 71
     4
 72
     5
  1
{\f@KaiTi|b0|i0|c0|p49;GND}
 11
0.0000000000000001
 21
1.0
 31
0.0
 73
     1
 44
1.0
1001
ACAD
1000
ACAD_MTEXT_DEFINED_HEIGHT_BEGIN
1070
    46
1040
0.0
1000
ACAD_MTEXT_DEFINED_HEIGHT_END
1000
MTEXTBEGIN
1070
    73
1070
     1
1070
    44
1040
1.0
1070
    74
1070
     0
1000
MTEXTEND
  0
MTEXT
  5
2D5
330
1F
100
AcDbEntity
  8
0
100
AcDbMText
 10
32.54
 20
44.55981545731803
 30
0.0
 40
1.999999999999999
 41
6.561538340129912
 71
     4
 72
     5
  1
{\f@KaiTi|b0|i0|c0|p49;Tx+}
 11
0.0000000000000001
 21
1.0
 31
0.0
 73
     1
 44
1.0
1001
ACAD
1000
ACAD_MTEXT_DEFINED_HEIGHT_BEGIN
1070
    46
1040
0.0
1000
ACAD_MTEXT_DEFINED_HEIGHT_END
1000
MTEXTBEGIN
1070
    73
1070
     1
1070
    44
1040
1.0
1070
    74
1070
     0
1000
MTEXTEND
  0
MTEXT
  5
2D6
330
1F
100
AcDbEntity
  8
0
100
AcDbMText
 10
27.46
 20
44.55981545731803
 30
0.0
 40
1.999999999999999
 41
6.561538340129912
 71
     4
 72
     5
  1
{\f@KaiTi|b0|i0|c0|p49;CTS+}
 11
0.0000000000000001
 21
1.0
 31
0.0
 73
     1
 44
1.0
1001
ACAD
1000
ACAD_MTEXT_DEFINED_HEIGHT_BEGIN
1070
    46
1040
0.0
1000
ACAD_MTEXT_DEFINED_HEIGHT_END
1000
MTEXTBEGIN
1070
    73
1070
     1
1070
    44
1040
1.0
1070
    74
1070
     0
1000
MTEXTEND
  0
MTEXT
  5
2D7
330
1F
100
AcDbEntity
  8
0
100
AcDbMText
 10
30.0
 20
44.55981545731803
 30
0.0
 40
1.999999999999999
 41
6.561538340129912
 71
     4
 72
     5
  1
{\f@KaiTi|b0|i0|c0|p49;RTS+}
 11
0.0000000000000001
 21
1.0
 31
0.0
 73
     1
 44
1.0
1001
ACAD
1000
ACAD_MTEXT_DEFINED_HEIGHT_BEGIN
1070
    46
1040
0.0
1000
ACAD_MTEXT_DEFINED_HEIGHT_END
1000
MTEXTBEGIN
1070
    73
1070
     1
1070
    44
1040
1.0
1070
    74
1070
     0
1000
MTEXTEND
  0
MTEXT
  5
2D8
330
1F
100
AcDbEntity
  8
0
100
AcDbMText
 10
24.92
 20
44.55981545731803
 30
0.0
 40
1.999999999999999
 41
6.561538340129912
 71
     4
 72
     5
  1
{\f@KaiTi|b0|i0|c0|p49;Rx+}
 11
0.0000000000000001
 21
1.0
 31
0.0
 73
     1
 44
1.0
1001
ACAD
1000
ACAD_MTEXT_DEFINED_HEIGHT_BEGIN
1070
    46
1040
0.0
1000
ACAD_MTEXT_DEFINED_HEIGHT_END
1000
MTEXTBEGIN
1070
    73
1070
     1
1070
    44
1040
1.0
1070
    74
1070
     0
1000
MTEXTEND
  0
HATCH
  5
2EE
330
1F
100
AcDbEntity
  8
0
100
AcDbHatch
 10
0.0
 20
0.0
 30
0.0000000000000089
210
0.0
220
0.0
230
1.0
  2
SOLID
 70
     1
 71
     1
 91
       10
 92
        7
 72
     1
 73
     1
 93
        2
 10
25.42
 20
41.55981545731802
 42
1.0
 10
24.42
 20
41.55981545731802
 42
1.0
 97
        1
330
27F
 92
        7
 72
     1
 73
     1
 93
        2
 10
27.96
 20
41.55981545731802
 42
1.0
 10
26.96
 20
41.55981545731802
 42
1.0
 97
        1
330
27D
 92
        7
 72
     1
 73
     1
 93
        2
 10
30.5
 20
41.55981545731802
 42
1.0
 10
29.5
 20
41.55981545731802
 42
1.0
 97
        1
330
266
 92
        7
 72
     1
 73
     1
 93
        2
 10
33.04
 20
41.55981545731802
 42
1.0
 10
32.04
 20
41.55981545731802
 42
1.0
 97
        1
330
271
 92
        7
 72
     1
 73
     1
 93
        2
 10
35.58
 20
41.55981545731802
 42
1.0
 10
34.58
 20
41.55981545731802
 42
1.0
 97
        1
330
27B
 92
        7
 72
     1
 73
     1
 93
        2
 10
35.58
 20
39.01981545731803
 42
1.0
 10
34.58
 20
39.01981545731803
 42
1.0
 97
        1
330
27A
 92
        7
 72
     1
 73
     1
 93
        2
 10
33.04
 20
39.01981545731803
 42
1.0
 10
32.04
 20
39.01981545731803
 42
1.0
 97
        1
330
270
 92
        7
 72
     1
 73
     1
 93
        2
 10
30.5
 20
39.01981545731803
 42
1.0
 10
29.5
 20
39.01981545731803
 42
1.0
 97
        1
330
25D
 92
        7
 72
     1
 73
     1
 93
        2
 10
27.96
 20
39.01981545731803
 42
1.0
 10
26.96
 20
39.01981545731803
 42
1.0
 97
        1
330
27C
 92
        7
 72
     1
 73
     1
 93
        2
 10
25.42
 20
39.01981545731803
 42
1.0
 10
24.42
 20
39.01981545731803
 42
1.0
 97
        1
330
27E
 75
     0
 76
     1
 47
0.0347966877798288
 98
       10
 10
24.88016995693858
 20
41.62614775866683
 10
27.59667587451946
 20
41.62614775866683
 10
29.99973835864063
 20
41.5565543228601
 10
32.19383992488526
 20
41.66094447657019
 10
35.32826932353515
 20
41.76533463028028
 10
35.11930758300065
 20
39.01639638604445
 10
32.64659063692938
 20
38.94680295023773
 10
29.9649119503236
 20
39.12078612806624
 10
27.28323244105963
 20
39.08598941016288
 10
24.67120821640407
 20
39.1555828459696
1001
ACAD
1010
0.0
1020
0.0
1030
0.0
  0
LWPOLYLINE
  5
2F1
102
{ACAD_REACTORS
330
337
102
}
330
1F
100
AcDbEntity
  8
0
100
AcDbPolyline
 90
        6
 70
     0
 43
0.0
 10
28.73
 20
42.82981545731803
 10
23.65
 20
42.82981545731803
 10
23.65
 20
37.74981545731803
 10
36.35
 20
37.74981545731803
 10
36.35
 20
42.82981545731803
 10
31.27
 20
42.82981545731803
  0
LWPOLYLINE
  5
2F2
102
{ACAD_REACTORS
330
337
102
}
330
1F
100
AcDbEntity
  8
0
100
AcDbPolyline
 90
        6
 70
     0
 43
0.0
 10
28.73
 20
43.32981545731803
 10
23.15
 20
43.32981545731803
 10
23.15
 20
37.24981545731803
 10
36.85
 20
37.24981545731803
 10
36.85
 20
43.32981545731803
 10
31.27
 20
43.32981545731803
  0
LINE
  5
2F3
102
{ACAD_REACTORS
330
337
102
}
330
1F
100
AcDbEntity
  8
0
100
AcDbLine
 10
31.27
 20
42.82981545731803
 30
0.0
 11
31.27
 21
43.32981545731803
 31
0.0
  0
LINE
  5
2FC
102
{ACAD_REACTORS
330
337
102
}
330
1F
100
AcDbEntity
  8
0
100
AcDbLine
 10
28.73
 20
42.82981545731803
 30
0.0
 11
28.73
 21
43.32981545731803
 31
0.0
  0
LINE
  5
2FE
102
{ACAD_REACTORS
330
3E2
102
}
330
1F
100
AcDbEntity
  8
0
100
AcDbLine
 10
36.87999999999997
 20
81.70000000000001
 30
0.0
 11
41.20999999999999
 21
74.20022000322695
 31
0.0
  0
LINE
  5
2FF
102
{ACAD_REACTORS
330
3E2
102
}
330
1F
100
AcDbEntity
  8
0
100
AcDbLine
 10
23.12000000000004
 20
81.70000000000001
 30
0.0
 11
18.79
 21
74.20022000322672
 31
0.0
  0
HATCH
  5
310
330
1F
100
AcDbEntity
  8
0
100
AcDbHatch
 10
0.0
 20
0.0
 30
0.0
210
0.0
220
0.0
230
1.0
  2
SOLID
 70
     1
 71
     1
 91
        1
 92
        7
 72
     0
 73
     1
 93
        4
 10
57.0
 20
81.70000000000001
 10
55.28999999999999
 20
81.70000000000001
 10
55.28999999999999
 20
27.70000000000001
 10
57.0
 20
27.70000000000001
 97
        2
330
13A
330
25C
 75
     0
 76
     1
 47
0.2047819290367595
 98
        1
 10
56.66633417935412
 20
75.43778228485945
1001
ACAD
1010
0.0
1020
0.0
1030
0.0
  0
HATCH
  5
315
330
1F
100
AcDbEntity
  8
0
100
AcDbHatch
 10
0.0
 20
0.0
 30
0.0
210
0.0
220
0.0
230
1.0
  2
SOLID
 70
     1
 71
     1
 91
        1
 92
        7
 72
     0
 73
     1
 93
        4
 10
4.710000000000004
 20
81.70000000000001
 10
3.0
 20
81.70000000000001
 10
3.0
 20
27.70000000000001
 10
4.710000000000004
 20
27.70000000000001
 97
        2
330
13A
330
25B
 75
     0
 76
     1
 47
0.2047819290367595
 98
        1
 10
3.786573588225962
 20
75.23300029414122
1001
ACAD
1010
0.0
1020
0.0
1030
0.0
  0
LINE
  5
316
330
1F
100
AcDbEntity
  8
0
100
AcDbLine
 10
60.0
 20
3.0
 30
0.0
 11
43.20999999999999
 21
3.0
 31
0.0
  0
LINE
  5
324
102
{ACAD_REACTORS
330
329
102
}
330
1F
100
AcDbEntity
  8
0
100
AcDbLine
 10
60.0
 20
106.4
 30
0.0
 11
0.0
 21
106.4
 31
0.0
  0
HATCH
  5
329
330
1F
100
AcDbEntity
  8
0
100
AcDbHatch
 10
0.0
 20
0.0
 30
0.0
210
0.0
220
0.0
230
1.0
  2
SOLID
 70
     1
 71
     1
 91
        1
 92
        7
 72
     0
 73
     1
 93
        4
 10
36.87999999999997
 20
109.4
 10
23.12000000000004
 20
109.4
 10
23.12000000000004
 20
106.4
 10
36.87999999999997
 20
106.4
 97
        4
330
F9
330
217
330
324
330
218
 75
     0
 76
     1
 47
0.1445252286885625
 98
        1
 10
31.8590205431637
 20
107.3481745619014
1001
ACAD
1010
0.0
1020
0.0
1030
0.0
  0
HATCH
  5
337
330
1F
100
AcDbEntity
  8
0
100
AcDbHatch
 10
0.0
 20
0.0
 30
0.0
210
0.0
220
0.0
230
1.0
  2
SOLID
 70
     1
 71
     1
 91
        1
 92
        7
 72
     0
 73
     1
 93
       12
 10
28.73
 20
43.32981545731802
 10
23.15
 20
43.32981545731803
 10
23.15
 20
37.24981545731803
 10
36.85
 20
37.24981545731803
 10
36.85
 20
43.32981545731803
 10
31.27
 20
43.32981545731803
 10
31.27
 20
42.82981545731803
 10
36.35
 20
42.82981545731802
 10
36.35
 20
37.74981545731802
 10
23.65
 20
37.74981545731804
 10
23.65
 20
42.82981545731803
 10
28.73
 20
42.82981545731803
 97
        4
330
2F2
330
2F3
330
2F1
330
2FC
 75
     0
 76
     1
 47
0.035423882701399
 98
        1
 10
23.5687846531826
 20
43.04300620769424
1001
ACAD
1010
0.0
1020
0.0
1030
0.0
  0
MTEXT
  5
341
330
1F
100
AcDbEntity
  8
0
100
AcDbMText
 10
37.88
 20
41.55981545731803
 30
0.0
 40
1.499999999999999
 41
6.561538340129912
 71
     4
 72
     5
  1
{\f@KaiTi|b0|i0|c0|p49;1}
 73
     1
 44
1.0
1001
ACAD
1000
ACAD_MTEXT_DEFINED_HEIGHT_BEGIN
1070
    46
1040
0.0
1000
ACAD_MTEXT_DEFINED_HEIGHT_END
1000
MTEXTBEGIN
1070
    73
1070
     1
1070
    44
1040
1.0
1070
    74
1070
     0
1000
MTEXTEND
  0
MTEXT
  5
34A
330
1F
100
AcDbEntity
  8
0
100
AcDbMText
 10
37.58
 20
39.01981545731803
 30
0.0
 40
1.499999999999999
 41
6.561538340129912
 71
     4
 72
     5
  1
{\f@KaiTi|b0|i0|c0|p49;2}
 73
     1
 44
1.0
1001
ACAD
1000
ACAD_MTEXT_DEFINED_HEIGHT_BEGIN
1070
    46
1040
0.0
1000
ACAD_MTEXT_DEFINED_HEIGHT_END
1000
MTEXTBEGIN
1070
    73
1070
     1
1070
    44
1040
1.0
1070
    74
1070
     0
1000
MTEXTEND
  0
MTEXT
  5
34B
330
1F
100
AcDbEntity
  8
0
100
AcDbMText
 10
22.22000000000001
 20
41.55981545731803
 30
0.0
 40
1.5
 41
6.561538340129914
 71
     6
 72
     5
  1
{\f@KaiTi|b0|i0|c0|p49;9}
 73
     1
 44
1.0
1001
ACAD
1000
ACAD_MTEXT_DEFINED_HEIGHT_BEGIN
1070
    46
1040
0.0
1000
ACAD_MTEXT_DEFINED_HEIGHT_END
1000
MTEXTBEGIN
1070
    73
1070
     1
1070
    44
1040
1.0
1070
    74
1070
     0
1000
MTEXTEND
  0
MTEXT
  5
34C
330
1F
100
AcDbEntity
  8
0
100
AcDbMText
 10
22.22000000000001
 20
39.01981545731803
 30
0.0
 40
1.5
 41
6.561538340129914
 71
     6
 72
     5
  1
{\f@KaiTi|b0|i0|c0|p49;10}
 73
     1
 44
1.0
1001
ACAD
1000
ACAD_MTEXT_DEFINED_HEIGHT_BEGIN
1070
    46
1040
0.0
1000
ACAD_MTEXT_DEFINED_HEIGHT_END
1000
MTEXTBEGIN
1070
    73
1070
     1
1070
    44
1040
1.0
1070
    74
1070
     0
1000
MTEXTEND
  0
LINE
  5
34E
102
{ACAD_REACTORS
330
365
330
3E2
102
}
330
1F
100
AcDbEntity
  8
0
100
AcDbLine
 10
18.79
 20
74.20022000322673
 30
0.0
 11
4.71
 21
74.20022000322672
 31
0.0
  0
LINE
  5
357
102
{ACAD_REACTORS
330
3E2
102
}
330
1F
100
AcDbEntity
  8
0
100
AcDbLine
 10
55.28999999999999
 20
74.20022000322695
 30
0.0
 11
41.21000000000001
 21
74.20022000322695
 31
0.0
  0
LINE
  5
361
102
{ACAD_REACTORS
330
365
102
}
330
1F
100
AcDbEntity
  8
0
100
AcDbLine
 10
7.71
 20
74.20022000322672
 30
0.0
 11
4.71
 21
69.0040675805201
 31
0.0
  0
HATCH
  5
365
330
1F
100
AcDbEntity
  8
0
100
AcDbHatch
 10
0.0
 20
0.0
 30
0.0
210
0.0
220
0.0
230
1.0
  2
SOLID
 70
     1
 71
     1
 91
        1
 92
        7
 72
     0
 73
     1
 93
        3
 10
7.71
 20
74.20022000322672
 10
4.71
 20
74.20022000322672
 10
4.71
 20
69.0040675805201
 97
        3
330
34E
330
25B
330
361
 75
     0
 76
     1
 47
0.1023522227852156
 98
        1
 10
5.983582428222064
 20
73.2398999364263
1001
ACAD
1010
0.0
1020
0.0
1030
0.0
  0
HATCH
  5
366
330
1F
100
AcDbEntity
  8
0
100
AcDbHatch
 10
0.0
 20
0.0
 30
0.0
210
0.0
220
0.0
230
1.0
  2
SOLID
 70
     1
 71
     0
 91
        1
 92
        7
 72
     0
 73
     1
 93
        3
 10
52.28999999999998
 20
74.20022000322669
 10
55.28999999999998
 20
74.20022000322667
 10
55.28999999999997
 20
69.00406758052006
 97
        0
 75
     0
 76
     1
 47
0.1023522227852156
 98
        1
 10
54.01641757177792
 20
73.23989993642626
1001
ACAD
1010
0.0
1020
0.0
1030
0.0
  0
LINE
  5
367
330
1F
100
AcDbEntity
  8
0
100
AcDbLine
 10
52.28999999999998
 20
74.20022000322669
 30
0.0
 11
55.28999999999997
 21
69.00406758052006
 31
0.0
  0
MTEXT
  5
371
330
1F
100
AcDbEntity
  8
0
100
AcDbMText
 10
30.0
 20
100.95
 30
-0.0000000000000011
 40
2.5
 41
3.289267639643071
 71
     5
 72
     5
  1
{\f@KaiTi|b0|i0|c0|p49;\C1;X}
 73
     1
 44
1.0
1001
ACAD
1000
MTEXTBEGIN
1070
    73
1070
     1
1070
    44
1040
1.0
1070
    74
1070
     0
1000
MTEXTEND
  0
MTEXT
  5
37A
330
1F
100
AcDbEntity
  8
0
100
AcDbMText
 10
10.75000000000001
 20
11.40000000000003
 30
0.0000000000000071
 40
2.5
 41
3.289267639643071
 71
     5
 72
     5
  1
{\f@KaiTi|b0|i0|c0|p49;\C1;X}
 73
     1
 44
1.0
1001
ACAD
1000
MTEXTBEGIN
1070
    73
1070
     1
1070
    44
1040
1.0
1070
    74
1070
     0
1000
MTEXTEND
  0
MTEXT
  5
382
330
1F
100
AcDbEntity
  8
0
100
AcDbMText
 10
30.00000000000001
 20
11.00000000000003
 30
0.0000000000000071
 40
2.5
 41
3.289267639643071
 71
     5
 72
     5
  1
{\f@KaiTi|b0|i0|c0|p49;\C1;X}
 73
     1
 44
1.0
1001
ACAD
1000
MTEXTBEGIN
1070
    73
1070
     1
1070
    44
1040
1.0
1070
    74
1070
     0
1000
MTEXTEND
  0
MTEXT
  5
38A
330
1F
100
AcDbEntity
  8
0
100
AcDbMText
 10
50.50499999999996
 20
12.80000000000001
 30
-0.0000000000000018
 40
2.5
 41
3.289267639643071
 71
     5
 72
     5
  1
{\f@KaiTi|b0|i0|c0|p49;\C1;X}
 73
     1
 44
1.0
1001
ACAD
1000
MTEXTBEGIN
1070
    73
1070
     1
1070
    44
1040
1.0
1070
    74
1070
     0
1000
MTEXTEND
  0
MTEXT
  5
395
330
1F
100
AcDbEntity
  8
0
100
AcDbMText
 10
30.0
 20
73.92572553951075
 30
0.0
 40
3.0
 41
22.42
 71
     2
 72
     5
  1
{\f@KaiTi|b0|i0|c0|p49;UCL-96K}
 73
     1
 44
1.0
1001
ACAD
1000
ACAD_MTEXT_DEFINED_HEIGHT_BEGIN
1070
    46
1040
0.0
1000
ACAD_MTEXT_DEFINED_HEIGHT_END
1000
MTEXTBEGIN
1070
    73
1070
     1
1070
    44
1040
1.0
1070
    74
1070
     0
1000
MTEXTEND
  0
MTEXT
  5
39F
330
1F
100
AcDbEntity
  8
0
100
AcDbMText
 10
30.0
 20
69.0040675805201
 30
0.0
 40
2.0
 41
47.58
 71
     2
 72
     5
  1
{\f@KaiTi|b0|i0|c0|p49;USB-CURRENT LOOP CONVERTER}
 73
     1
 44
1.0
1001
ACAD
1000
ACAD_MTEXT_DEFINED_HEIGHT_BEGIN
1070
    46
1040
8.666666666666893
1000
ACAD_MTEXT_DEFINED_HEIGHT_END
1000
MTEXTBEGIN
1070
    73
1070
     1
1070
    44
1040
1.0
1070
    74
1070
     0
1000
MTEXTEND
  0
LINE
  5
3C4
330
1F
100
AcDbEntity
  8
0
100
AcDbLine
 10
43.21
 20
3.0
 30
0.0
 11
43.20999999999999
 21
22.70000000000002
 31
0.0
  0
LINE
  5
3C5
330
1F
100
AcDbEntity
  8
0
100
AcDbLine
 10
42.20999999999999
 20
3.0
 30
0.0
 11
42.20999999999999
 21
22.70000000000002
 31
0.0
  0
LINE
  5
3C6
330
1F
100
AcDbEntity
  8
0
100
AcDbLine
 10
16.79
 20
3.0
 30
0.0
 11
0.0
 21
2.999999999999999
 31
0.0
  0
LINE
  5
3C7
330
1F
100
AcDbEntity
  8
0
100
AcDbLine
 10
42.20999999999999
 20
3.0
 30
0.0
 11
17.79
 21
3.0
 31
0.0
  0
HATCH
  5
3D4
330
1F
100
AcDbEntity
  8
0
100
AcDbHatch
 10
0.0
 20
0.0
 30
0.0000000000000036
210
0.0
220
0.0
230
1.0
  2
SOLID
 70
     1
 71
     0
 91
        1
 92
        7
 72
     0
 73
     1
 93
       12
 10
55.28999999999999
 20
3.0
 10
43.21
 20
3.0
 10
43.20999999999999
 20
22.70000000000002
 10
42.20999999999999
 20
22.70000000000002
 10
42.20999999999999
 20
3.0
 10
17.79
 20
3.0
 10
17.79
 20
22.70000000000002
 10
16.79
 20
22.70000000000003
 10
16.79
 20
3.0
 10
4.71
 20
2.999999999999999
 10
4.709999999999997
 20
-0.0000000000000009
 10
55.29
 20
-0.0000000000000009
 97
        0
 75
     0
 76
     1
 47
0.0831847126138098
 98
        1
 10
23.41824210817464
 20
2.180717558931235
1001
ACAD
1010
0.0
1020
0.0
1030
0.0
  0
HATCH
  5
3E2
330
1F
100
AcDbEntity
  8
0
100
AcDbHatch
 10
0.0
 20
0.0
 30
0.0000000000000036
210
0.0
220
0.0
230
1.0
  2
SOLID
 70
     1
 71
     1
 91
        2
 92
        7
 72
     0
 73
     1
 93
        4
 10
23.12000000000004
 20
81.70000000000001
 10
4.710000000000004
 20
81.69999999999999
 10
4.710000000000007
 20
74.20022000322671
 10
18.79
 20
74.20022000322673
 97
        4
330
13A
330
25B
330
34E
330
2FF
 92
        7
 72
     0
 73
     1
 93
        4
 10
55.28999999999999
 20
81.70000000000001
 10
36.87999999999998
 20
81.70000000000001
 10
41.21
 20
74.20022000322695
 10
55.28999999999999
 20
74.20022000322695
 97
        4
330
13A
330
2FE
330
357
330
25C
 75
     0
 76
     1
 47
0.0955182577022199
 98
        2
 10
13.70347811892787
 20
77.78749658406025
 10
42.86192416846034
 20
80.36648955754158
1001
ACAD
1010
0.0
1020
0.0
1030
0.0
  0
LINE
  5
3E6
102
{ACAD_REACTORS
330
40A
102
}
330
1F
100
AcDbEntity
  8
0
100
AcDbLine
 10
4.710000000000007
 20
55.70000000000002
 30
0.0
 11
16.79
 21
55.70000000000002
 31
0.0
  0
LINE
  5
3EE
102
{ACAD_REACTORS
330
40A
102
}
330
1F
100
AcDbEntity
  8
0
100
AcDbLine
 10
4.710000000000007
 20
56.70000000000001
 30
0.0
 11
55.28999999999999
 21
56.70000000000001
 31
0.0
  0
LINE
  5
3EF
102
{ACAD_REACTORS
330
40A
102
}
330
1F
100
AcDbEntity
  8
0
100
AcDbLine
 10
17.79
 20
27.70000000000001
 30
0.0
 11
17.78999999999999
 21
55.70000000000002
 31
0.0
  0
LINE
  5
3F0
102
{ACAD_REACTORS
330
40A
102
}
330
1F
100
AcDbEntity
  8
0
100
AcDbLine
 10
16.79
 20
27.70000000000001
 30
0.0
 11
16.79
 21
55.70000000000002
 31
0.0
  0
LINE
  5
3FA
102
{ACAD_REACTORS
330
40A
102
}
330
1F
100
AcDbEntity
  8
0
100
AcDbLine
 10
42.21
 20
27.70000000000001
 30
0.0
 11
42.21
 21
55.70000000000002
 31
0.0
  0
LINE
  5
3FB
102
{ACAD_REACTORS
330
40A
102
}
330
1F
100
AcDbEntity
  8
0
100
AcDbLine
 10
43.20999999999999
 20
27.70000000000001
 30
0.0
 11
43.20999999999999
 21
55.70000000000002
 31
0.0
  0
LINE
  5
3FC
102
{ACAD_REACTORS
330
40A
102
}
330
1F
100
AcDbEntity
  8
0
100
AcDbLine
 10
43.20999999999998
 20
55.70000000000002
 30
0.0
 11
55.28999999999999
 21
55.70000000000002
 31
0.0
  0
LINE
  5
3FD
102
{ACAD_REACTORS
330
40A
102
}
330
1F
100
AcDbEntity
  8
0
100
AcDbLine
 10
17.78999999999999
 20
55.70000000000002
 30
0.0
 11
42.20999999999999
 21
55.70000000000002
 31
0.0
  0
HATCH
  5
40A
330
1F
100
AcDbEntity
  8
0
100
AcDbHatch
 10
0.0
 20
0.0
 30
0.0
210
0.0
220
0.0
230
1.0
  2
SOLID
 70
     1
 71
     1
 91
        1
 92
        7
 72
     0
 73
     1
 93
       12
 10
55.28999999999999
 20
56.70000000000001
 10
4.71
 20
56.70000000000001
 10
4.71
 20
55.70000000000002
 10
16.79
 20
55.70000000000003
 10
16.79
 20
27.70000000000001
 10
17.79
 20
27.70000000000001
 10
17.78999999999999
 20
55.70000000000002
 10
42.21
 20
55.70000000000002
 10
42.21
 20
27.70000000000001
 10
43.20999999999999
 20
27.70000000000001
 10
43.20999999999999
 20
55.70000000000002
 10
55.28999999999999
 20
55.70000000000002
 97
       11
330
3EE
330
25B
330
3E6
330
3F0
330
13A
330
3EF
330
3FD
330
3FA
330
3FB
330
3FC
330
25C
 75
     0
 76
     1
 47
0.0851734914277265
 98
        1
 10
17.55384697117432
 20
56.27517918315738
1001
ACAD
1010
0.0
1020
0.0
1030
0.0
  0
LINE
  5
551
330
1F
100
AcDbEntity
  8
0
100
AcDbLine
 10
-23.9987871583765
 20
116.0063787265357
 30
0.0
 11
-13.9987871583765
 21
116.0063787265357
 31
0.0
  0
LINE
  5
552
102
{ACAD_REACTORS
330
58C
102
}
330
1F
100
AcDbEntity
  8
0
100
AcDbLine
 10
-18.9987871583765
 20
111.0063787265357
 30
0.0
 11
-18.9987871583765
 21
121.0063787265357
 31
0.0
  0
LINE
  5
55C
330
1F
100
AcDbEntity
  8
0
100
AcDbLine
 10
76.0012128416235
 20
116.0063787265357
 30
0.0
 11
86.0012128416235
 21
116.0063787265357
 31
0.0
  0
LINE
  5
55D
102
{ACAD_REACTORS
330
58C
330
5A4
102
}
330
1F
100
AcDbEntity
  8
0
100
AcDbLine
 10
81.0012128416235
 20
111.0063787265357
 30
0.0
 11
81.0012128416235
 21
121.0063787265357
 31
0.0
  0
LINE
  5
570
330
1F
100
AcDbEntity
  8
0
100
AcDbLine
 10
-23.9987871583765
 20
16.00637872653573
 30
0.0
 11
-13.9987871583765
 21
16.00637872653573
 31
0.0
  0
LINE
  5
571
330
1F
100
AcDbEntity
  8
0
100
AcDbLine
 10
-18.9987871583765
 20
11.00637872653573
 30
0.0
 11
-18.9987871583765
 21
21.00637872653573
 31
0.0
  0
LINE
  5
572
330
1F
100
AcDbEntity
  8
0
100
AcDbLine
 10
76.0012128416235
 20
16.00637872653573
 30
0.0
 11
86.0012128416235
 21
16.00637872653573
 31
0.0
  0
LINE
  5
573
102
{ACAD_REACTORS
330
5A4
102
}
330
1F
100
AcDbEntity
  8
0
100
AcDbLine
 10
81.0012128416235
 20
11.00637872653573
 30
0.0
 11
81.0012128416235
 21
21.00637872653573
 31
0.0
  0
DIMENSION
  5
574
102
{ACAD_XDICTIONARY
360
582
102
}
102
{ACAD_REACTORS
330
58C
102
}
330
1F
100
AcDbEntity
  8
0
100
AcDbDimension
  2
*D6
 10
81.0012128416235
 20
127.7017969557393
 30
0.0
 11
31.0012128416235
 21
129.5767969557393
 31
0.0
 70
    32
 71
     5
 42
100.0
  3
ISO-25
100
AcDbAlignedDimension
 13
-18.9987871583765
 23
116.0063787265357
 33
0.0
 14
81.0012128416235
 24
116.0063787265357
 34
0.0
100
AcDbRotatedDimension
  0
DIMENSION
  5
58D
102
{ACAD_XDICTIONARY
360
59A
102
}
102
{ACAD_REACTORS
330
5A4
102
}
330
1F
100
AcDbEntity
  8
0
100
AcDbDimension
  2
*D7
 10
93.91995758808452
 20
16.00637872653572
 30
0.0
 11
92.04495758808452
 21
66.00637872653575
 31
0.0
 70
    32
 71
     5
 42
100.0
  3
ISO-25
100
AcDbAlignedDimension
 13
81.0012128416235
 23
116.0063787265357
 33
0.0
 14
81.0012128416235
 24
16.00637872653573
 34
0.0
 50
90.0
100
AcDbRotatedDimension
  0
ENDSEC
  0
SECTION
  2
OBJECTS
  0
DICTIONARY
  5
C
330
0
100
AcDbDictionary
281
     1
  3
ACAD_COLOR
350
6B
  3
ACAD_GROUP
350
D
  3
ACAD_LAYOUT
350
1A
  3
ACAD_MATERIAL
350
6A
  3
ACAD_MLINESTYLE
350
17
  3
ACAD_PLOTSETTINGS
350
19
  3
ACAD_PLOTSTYLENAME
350
E
  3
ACAD_TABLESTYLE
350
7E
  3
ACDBHEADERROUNDTRIPXREC
350
5C6
  3
AcDbVariableDictionary
350
5E
  3
DWGPROPS
350
5C5
  0
DICTIONARY
  5
115
330
1F
100
AcDbDictionary
280
     1
281
     1
  3
ACAD_SORTENTS
360
116
  0
DICTIONARY
  5
143
330
141
100
AcDbDictionary
280
     1
281
     1
  3
ACAD_SORTENTS
360
144
  0
DICTIONARY
  5
284
330
281
100
AcDbDictionary
280
     1
281
     1
  3
ACAD_SORTENTS
360
285
  0
DICTIONARY
  5
39A
330
397
100
AcDbDictionary
280
     1
281
     1
  3
ACAD_SORTENTS
360
39B
  0
DICTIONARY
  5
423
330
41A
100
AcDbDictionary
280
     1
281
     1
  3
ACAD_SORTENTS
360
424
  0
DICTIONARY
  5
561
330
55E
100
AcDbDictionary
280
     1
281
     1
  3
ACAD_SORTENTS
360
562
  0
DICTIONARY
  5
582
330
574
100
AcDbDictionary
280
     1
281
     1
  3
ACAD_DIMASSOC
360
58C
  0
DICTIONARY
  5
59A
330
58D
100
AcDbDictionary
280
     1
281
     1
  3
ACAD_DIMASSOC
360
5A4
  0
DICTIONARY
  5
6B
102
{ACAD_REACTORS
330
C
102
}
330
C
100
AcDbDictionary
281
     1
  0
DICTIONARY
  5
D
102
{ACAD_REACTORS
330
C
102
}
330
C
100
AcDbDictionary
281
     1
  0
DICTIONARY
  5
1A
102
{ACAD_REACTORS
330
C
102
}
330
C
100
AcDbDictionary
281
     1
  3
Layout1
350
D3
  3
Layout2
350
D7
  3
Model
350
22
  0
DICTIONARY
  5
6A
102
{ACAD_REACTORS
330
C
102
}
330
C
100
AcDbDictionary
281
     1
  0
DICTIONARY
  5
17
102
{ACAD_REACTORS
330
C
102
}
330
C
100
AcDbDictionary
281
     1
  3
Standard
350
18
  0
DICTIONARY
  5
19
102
{ACAD_REACTORS
330
C
102
}
330
C
100
AcDbDictionary
281
     1
  0
ACDBDICTIONARYWDFLT
  5
E
102
{ACAD_REACTORS
330
C
102
}
330
C
100
AcDbDictionary
281
     1
  3
Normal
350
F
100
AcDbDictionaryWithDefault
340
F
  0
DICTIONARY
  5
7E
102
{ACAD_REACTORS
330
C
102
}
330
C
100
AcDbDictionary
281
     1
  3
Standard
350
7F
  0
DICTIONARY
  5
5C6
102
{ACAD_REACTORS
330
C
102
}
330
C
100
AcDbDictionary
281
     1
  0
DICTIONARY
  5
5E
102
{ACAD_REACTORS
330
C
102
}
330
C
100
AcDbDictionary
281
     1
  3
CTABLESTYLE
350
84
  3
DIMASSOC
350
5F
  3
HIDETEXT
350
63
  3
PROJECTNAME
350
5C3
  0
XRECORD
  5
5C5
102
{ACAD_REACTORS
330
C
102
}
330
C
100
AcDbXrecord
280
     1
  1
DWGPROPS COOKIE
  2

  3

  4

  6

  7

  8
Autodesk
  9

300
=
301
=
302
=
303
=
304
=
305
=
306
=
307
=
308
=
309
=
 40
1.328303298611111
 41
2458027.88877463
 42
2458763.824492697
  1

 90
        0
  0
SORTENTSTABLE
  5
116
102
{ACAD_REACTORS
330
115
102
}
330
115
100
AcDbSortentsTable
330
1F
331
12A
  5
124
331
218
  5
290
331
2D6
  5
316
331
13A
  5
1E8
331
3FB
  5
3FE
331
2EE
  5
2A0
331
FB
  5
183
331
103
  5
18B
331
17A
  5
1FB
331
10B
  5
104
331
1F1
  5
27D
331
270
  5
2A3
331
2FE
  5
34C
331
3C4
  5
3EE
331
113
  5
10C
331
316
  5
357
331
365
  5
291
331
3D4
  5
12B
331
11B
  5
113
331
209
  5
127
331
123
  5
11D
331
290
  5
2D7
331
12B
  5
1A3
331
2D7
  5
317
331
221
  5
12D
331
2A8
  5
129
331
3FC
  5
3FB
331
34E
  5
382
331
395
  5
3DA
331
104
  5
193
331
10C
  5
105
331
183
  5
205
331
271
  5
2A4
331
2FF
  5
34E
331
3C5
  5
3EF
331
114
  5
10D
331
18B
  5
218
331
1FA
  5
27E
331
366
  5
39F
331
11C
  5
114
331
193
  5
219
331
291
  5
2D8
331
1A3
  5
22D
331
124
  5
11E
331
2D8
  5
324
331
12C
  5
1A4
331
337
  5
325
331
3FD
  5
3FA
331
10D
  5
106
331
310
  5
1A9
331
357
  5
38A
331
3C6
  5
361
331
27A
  5
2B2
331
367
  5
3C4
331
3E6
  5
3F0
331
11D
  5
117
331
3EE
  5
3FC
331
1A4
  5
25B
331
125
  5
11F
331
292
  5
2DA
331
2A2
  5
2F1
331
1C4
  5
266
331
25B
  5
292
331
2F1
  5
32B
331
39F
  5
3E6
331
2B2
  5
2F3
331
10E
  5
107
331
3C7
  5
358
331
27B
  5
2BB
331
11E
  5
118
331
329
  5
139
331
3EF
  5
27C
331
126
  5
120
331
293
  5
2F0
331
2A3
  5
2F2
331
341
  5
366
331
25C
  5
293
331
2F2
  5
341
331
1CD
  5
1F1
331
10F
  5
108
331
2BB
  5
2FC
331
361
  5
395
331
27C
  5
2C3
331
2C3
  5
2FE
331
371
  5
3C5
331
11F
  5
119
331
2CB
  5
300
331
127
  5
121
331
2D3
  5
306
331
3F0
  5
1FA
331
1B6
  5
25C
331
34A
  5
367
331
25D
  5
2A1
331
2F3
  5
34A
331
110
  5
109
331
27D
  5
2CB
331
37A
  5
3C6
331
120
  5
11A
331
128
  5
122
331
2D4
  5
30C
331
382
  5
3C7
331
38A
  5
3C8
331
34B
  5
371
331
F9
  5
13A
331
109
  5
FB
331
266
  5
2A2
331
2FC
  5
34B
331
111
  5
10A
331
27E
  5
2D3
331
324
  5
362
331
3E2
  5
1CD
331
121
  5
11B
331
129
  5
123
331
217
  5
27F
331
2D5
  5
311
331
1C0
  5
25D
331
3FA
  5
3FD
331
34C
  5
37A
331
40A
  5
1CF
331
F2
  5
12C
331
FA
  5
17A
331
10A
  5
103
331
112
  5
10B
331
315
  5
1AA
331
27F
  5
2D6
331
122
  5
11C
  0
SORTENTSTABLE
  5
144
102
{ACAD_REACTORS
330
143
102
}
330
143
100
AcDbSortentsTable
330
141
  0
SORTENTSTABLE
  5
285
102
{ACAD_REACTORS
330
284
102
}
330
284
100
AcDbSortentsTable
330
281
  0
SORTENTSTABLE
  5
39B
102
{ACAD_REACTORS
330
39A
102
}
330
39A
100
AcDbSortentsTable
330
397
  0
SORTENTSTABLE
  5
424
102
{ACAD_REACTORS
330
423
102
}
330
423
100
AcDbSortentsTable
330
41A
  0
SORTENTSTABLE
  5
562
102
{ACAD_REACTORS
330
561
102
}
330
561
100
AcDbSortentsTable
330
55E
  0
DIMASSOC
  5
58C
102
{ACAD_REACTORS
330
582
102
}
330
582
100
AcDbDimAssoc
330
574
 90
        3
 70
     0
 71
     0
  1
AcDbOsnapPointRef
 72
     2
331
552
 73
     2
 91
        0
 40
0.5
 10
0.0
 20
0.0
 30
0.0
 75
     0
  1
AcDbOsnapPointRef
 72
     2
331
55D
 73
     2
 91
        0
 40
0.5
 10
0.0
 20
0.0
 30
0.0
 75
     0
  0
DIMASSOC
  5
5A4
102
{ACAD_REACTORS
330
59A
102
}
330
59A
100
AcDbDimAssoc
330
58D
 90
        3
 70
     0
 71
     0
  1
AcDbOsnapPointRef
 72
     2
331
55D
 73
     2
 91
        0
 40
0.5
 10
0.0
 20
0.0
 30
0.0
 75
     0
  1
AcDbOsnapPointRef
 72
     2
331
573
 73
     2
 91
        0
 40
0.5
 10
0.0
 20
0.0
 30
0.0
 75
     0
  0
LAYOUT
  5
D3
102
{ACAD_XDICTIONARY
360
5C9
102
}
102
{ACAD_REACTORS
330
1A
102
}
330
1A
100
AcDbPlotSettings
  1

  2
C:\Documents and Settings\basas\Application Data\Autodesk\AutoCAD 2005\R16.1\enu\plotters\Default Windows System Printer.pc3
  4

  6

 40
0.0
 41
0.0
 42
0.0
 43
0.0
 44
0.0
 45
0.0
 46
0.0
 47
0.0
 48
0.0
 49
0.0
140
0.0
141
0.0
142
1.0
143
1.0
 70
   688
 72
     0
 73
     0
 74
     5
  7

 75
    16
147
1.0
148
0.0
149
0.0
100
AcDbLayout
  1
Layout1
 70
     1
 71
     1
 10
0.0
 20
0.0
 11
12.0
 21
9.0
 12
0.0
 22
0.0
 32
0.0
 14
0.0
 24
0.0
 34
0.0
 15
0.0
 25
0.0
 35
0.0
146
0.0
 13
0.0
 23
0.0
 33
0.0
 16
1.0
 26
0.0
 36
0.0
 17
0.0
 27
1.0
 37
0.0
 76
     0
330
D2
  0
LAYOUT
  5
D7
102
{ACAD_XDICTIONARY
360
5CB
102
}
102
{ACAD_REACTORS
330
1A
102
}
330
1A
100
AcDbPlotSettings
  1

  2
C:\Documents and Settings\basas\Application Data\Autodesk\AutoCAD 2005\R16.1\enu\plotters\Default Windows System Printer.pc3
  4

  6

 40
0.0
 41
0.0
 42
0.0
 43
0.0
 44
0.0
 45
0.0
 46
0.0
 47
0.0
 48
0.0
 49
0.0
140
0.0
141
0.0
142
1.0
143
1.0
 70
   688
 72
     0
 73
     0
 74
     5
  7

 75
    16
147
1.0
148
0.0
149
0.0
100
AcDbLayout
  1
Layout2
 70
     1
 71
     2
 10
0.0
 20
0.0
 11
12.0
 21
9.0
 12
0.0
 22
0.0
 32
0.0
 14
0.0
 24
0.0
 34
0.0
 15
0.0
 25
0.0
 35
0.0
146
0.0
 13
0.0
 23
0.0
 33
0.0
 16
1.0
 26
0.0
 36
0.0
 17
0.0
 27
1.0
 37
0.0
 76
     0
330
D6
  0
LAYOUT
  5
22
102
{ACAD_XDICTIONARY
360
5C7
102
}
102
{ACAD_REACTORS
330
1A
102
}
330
1A
100
AcDbPlotSettings
  1

  2
CutePDF Writer
  4
User32767
  6

 40
3.174999952316284
 41
3.174999952316284
 42
3.175003051757812
 43
3.17498779296875
 44
210.0
 45
297.0
 46
38.47540959429898
 47
71.96080364431157
 48
-158.4279094591779
 49
-194.9338731507864
140
-31.72873165185001
141
-48.20546818469461
142
1.0
143
1.0
 70
 11956
 72
     1
 73
     0
 74
     4
  7

 75
    16
147
1.0
148
158.4279094591779
149
194.9338731507864
100
AcDbLayout
  1
Model
 70
     1
 71
     0
 10
0.0
 20
0.0
 11
12.0
 21
9.0
 12
0.0
 22
0.0
 32
0.0
 14
0.0
 24
0.0
 34
0.0
 15
0.0
 25
0.0
 35
0.0
146
0.0
 13
0.0
 23
0.0
 33
0.0
 16
1.0
 26
0.0
 36
0.0
 17
0.0
 27
1.0
 37
0.0
 76
     0
330
1F
1001
ACAD_PSEXT
1000
CutePDF Writer
1000
CutePDF Writer
1000
CPW2:
1000

1070
     0
  0
MLINESTYLE
  5
18
102
{ACAD_REACTORS
330
17
102
}
330
17
100
AcDbMlineStyle
  2
STANDARD
 70
     0
  3

 62
   256
 51
90.0
 52
90.0
 71
     2
 49
0.5
 62
   256
  6
BYLAYER
 49
-0.5
 62
   256
  6
BYLAYER
  0
ACDBPLACEHOLDER
  5
F
102
{ACAD_REACTORS
330
E
102
}
330
E
  0
TABLESTYLE
  5
7F
102
{ACAD_REACTORS
330
7E
102
}
330
7E
100
AcDbTableStyle
  3
Standard
 70
     0
 71
     0
 40
1.5
 41
1.5
280
     0
281
     0
  7
Standard
140
4.5
170
     2
 62
     0
 63
     7
283
     0
274
    -2
284
     1
 64
     0
275
    -2
285
     1
 65
     0
276
    -2
286
     1
 66
     0
277
    -2
287
     1
 67
     0
278
    -2
288
     1
 68
     0
279
    -2
289
     1
 69
     0
  7
Standard
140
6.0
170
     5
 62
     0
 63
     7
283
     0
274
    -2
284
     1
 64
     0
275
    -2
285
     1
 65
     0
276
    -2
286
     1
 66
     0
277
    -2
287
     1
 67
     0
278
    -2
288
     1
 68
     0
279
    -2
289
     1
 69
     0
  7
Standard
140
4.5
170
     5
 62
     0
 63
     7
283
     0
274
    -2
284
     1
 64
     0
275
    -2
285
     1
 65
     0
276
    -2
286
     1
 66
     0
277
    -2
287
     1
 67
     0
278
    -2
288
     1
 68
     0
279
    -2
289
     1
 69
     0
  0
DICTIONARYVAR
  5
84
102
{ACAD_REACTORS
330
5E
102
}
330
5E
100
DictionaryVariables
280
     0
  1
STANDARD
  0
DICTIONARYVAR
  5
5F
102
{ACAD_REACTORS
330
5E
102
}
330
5E
100
DictionaryVariables
280
     0
  1
2
  0
DICTIONARYVAR
  5
63
102
{ACAD_REACTORS
330
5E
102
}
330
5E
100
DictionaryVariables
280
     0
  1
1
  0
DICTIONARYVAR
  5
5C3
102
{ACAD_REACTORS
330
5E
102
}
330
5E
100
DictionaryVariables
280
     0
  1

  0
DICTIONARY
  5
5C9
330
D3
100
AcDbDictionary
280
     1
281
     1
  3
ACAD_XREC_ROUNDTRIP
360
5CA
  0
DICTIONARY
  5
5CB
330
D7
100
AcDbDictionary
280
     1
281
     1
  3
ACAD_XREC_ROUNDTRIP
360
5CC
  0
DICTIONARY
  5
5C7
330
22
100
AcDbDictionary
280
     1
281
     1
  3
ACAD_XREC_ROUNDTRIP
360
5C8
  0
XRECORD
  5
5CA
102
{ACAD_REACTORS
330
5C9
102
}
330
5C9
100
AcDbXrecord
280
     1
102
SHADEPLOT
 70
     0
102
SHADEPLOTRESLEVEL
 70
     2
102
SHADEPLOTCUSTOMDPI
 70
   300
  0
XRECORD
  5
5CC
102
{ACAD_REACTORS
330
5CB
102
}
330
5CB
100
AcDbXrecord
280
     1
102
SHADEPLOT
 70
     0
102
SHADEPLOTRESLEVEL
 70
     2
102
SHADEPLOTCUSTOMDPI
 70
   300
  0
XRECORD
  5
5C8
102
{ACAD_REACTORS
330
5C7
102
}
330
5C7
100
AcDbXrecord
280
     1
102
SHADEPLOT
 70
     0
102
SHADEPLOTRESLEVEL
 70
     2
102
SHADEPLOTCUSTOMDPI
 70
   300
  0
ENDSEC
  0
EOF
