M48
;FILE_FORMAT=3:3
METRIC,000.000
;TYPE=PLATED
T01C0.300
T03C1.000
T04C2.500
;TYPE=NON_PLATED
T02C0.500
%
T01
X+105737Y+209763
X+104500Y+209250
X+105737Y+212237
X+104500Y+212750
X+102750Y+211000
X+106250
X+103263Y+209763
X+103263Y+212237
X+121000Y+211000
X+117750Y+216000
X+118750
X+123263Y+209763
X+125737Y+209763
X+124500Y+209250
X+125737Y+212237
X+123263Y+212237
X+124500Y+212750
X+122750Y+211000
X+126250
T02
X+112185Y+201100
X+115951Y+201094
T03
X+114500Y+212250
Y+209750
X+112000Y+212250
Y+209750
X+119500
Y+212250
X+117000
Y+209750
X+109500Y+212250
Y+209750
T04
X+104500Y+211000
X+124500
T00
M30
